<?xml version="1.0" encoding="UTF-8" standalone="no"?>
<svg
   xmlns:dc="http://purl.org/dc/elements/1.1/"
   xmlns:cc="http://creativecommons.org/ns#"
   xmlns:rdf="http://www.w3.org/1999/02/22-rdf-syntax-ns#"
   xmlns:svg="http://www.w3.org/2000/svg"
   xmlns="http://www.w3.org/2000/svg"
   viewBox="0 0 5333.3335 5333.3335"
   height="5333.3335"
   width="5333.3335"
   xml:space="preserve"
   id="svg2"
   version="1.1"><metadata
     id="metadata8"><rdf:RDF><cc:Work
         rdf:about=""><dc:format>image/svg+xml</dc:format><dc:type
           rdf:resource="http://purl.org/dc/dcmitype/StillImage" /></cc:Work></rdf:RDF></metadata><defs
     id="defs6" /><g
     transform="matrix(1.3333333,0,0,-1.3333333,0,5333.3333)"
     id="g10"><g
       transform="scale(0.1)"
       id="g12"><g
         transform="scale(2.45399)"
         id="g14"><path
           id="path16"
           style="fill:#82e7ff;fill-opacity:1;fill-rule:nonzero;stroke:none"
           d="M 16300,0 H 0 V 16300 H 16300 V 0" /></g><g
         transform="scale(2.01227)"
         id="g18"><path
           id="path20"
           style="fill:#73b9e3;fill-opacity:1;fill-rule:nonzero;stroke:none"
           d="m 10337.9,3005.96 c -3292.77,0 -5962.09,317.85 -5962.09,709.99 0,194.81 658.9,371.28 1726.01,499.59 273.57,-152.91 503.9,-270.74 679.08,-356.02 60.53,-186.21 223.73,-393.58 587.15,-459.98 227.45,-41.59 443.08,-55.51 629.73,-55.51 315.97,0 548.74,39.81 614.53,52.43 98.8,-14.06 567.97,-76.92 1079.43,-76.92 309.96,0 635.46,23.1 903.36,94.07 152.7,40.45 288,124.88 391.4,244.25 71.4,82.39 133.1,161.36 184.2,235.7 130.4,-67.93 401.8,-192.81 753.5,-265.82 180.3,-37.42 357.9,-56 531.4,-56 455.5,0.05 883.2,127.96 1257.7,379.32 149.3,100.19 274,206.73 378.1,316.51 1347.4,-130.15 2208.6,-328.93 2208.6,-551.62 0,-392.14 -2669.3,-709.99 -5962.1,-709.99" /></g><path
         id="path22"
         style="fill:#929292;fill-opacity:1;fill-rule:nonzero;stroke:none"
         d="m 14031.6,11792.4 c 348.3,867.4 1192.6,1282.4 1192.6,1282.4 l 13.6,-2509.2 -772.1,902.3 -434.1,324.5" /><g
         transform="scale(2.08236)"
         id="g24"><path
           id="path26"
           style="fill:#929292;fill-opacity:1;fill-rule:nonzero;stroke:none"
           d="m 15447.1,5125.19 h 304.2 c 0,0 -672.3,-1045.93 -1922.8,-590.68 -7.2,2.65 -14.6,5.29 -22.1,8.17 l 25.2,105.17 53.6,223.78 118.4,494.87 c 94.3,20.17 181.3,65.55 260,131.82 471.4,394.75 649,1528.32 371.2,2386.72 l 0.7,-0.24 c 28.4,-9.13 936,-307.59 1211.9,-953.49 l 128,207.94 c 324.6,-516.24 224.2,-1667.58 -528.3,-2014.06" /></g><g
         transform="scale(1.91828)"
         id="g28"><path
           id="path30"
           style="fill:#d3d3d3;fill-opacity:1;fill-rule:nonzero;stroke:none"
           d="m 15762.1,6128.73 c 18.5,27.42 36.3,56.09 53.6,86.02 318.9,551.48 406.2,1433.73 227.8,2172.16 23.8,-10.27 49.4,-21.69 76.5,-34.2 180,-813.91 26.7,-1768.1 -357.9,-2223.98" /></g><g
         transform="scale(2.08236)"
         id="g32"><path
           id="path34"
           style="fill:#ffffff;fill-opacity:1;fill-rule:nonzero;stroke:none"
           d="m 15447.1,5125.19 h 304.2 c 0,0 -672.3,-1045.93 -1922.8,-590.68 l 3.1,113.34 6.8,250.43 c 15.3,-9.6 30.9,-18.48 46.8,-26.65 459.3,-242.75 1057.7,26.65 1057.7,26.65 l -308.1,192.09 c 964.6,200.02 1188.6,984.46 1188.6,984.46 l -232.2,-44.66 c 0,900.66 -403.6,1583.78 -955.7,1854.63 28.4,-9.13 936,-307.59 1211.9,-953.49 l 128,207.94 c 324.6,-516.24 224.2,-1667.58 -528.3,-2014.06" /></g><g
         transform="scale(2.08297)"
         id="g36"><path
           id="path38"
           style="fill:#390075;fill-opacity:1;fill-rule:nonzero;stroke:none"
           d="m 14437.1,4323.01 c -200.8,0 -424.2,36.49 -668.4,128.38 -49.7,18.67 -74.7,74.03 -56.1,123.67 18.7,49.69 74.1,74.7 123.7,56.07 492.1,-185.22 948.1,-151.32 1355.2,100.48 156.2,96.59 275.5,208.74 355.4,296.16 h -104.2 c -45.1,0 -84.1,31.35 -93.8,75.43 -9.6,44.07 12.7,88.91 53.6,107.82 269.9,124.2 474.9,382.2 577.2,726.37 100.3,337.31 90.3,724.4 -17.7,1002.42 l -37.5,-60.93 c -18.7,-30.53 -53,-47.81 -88.8,-45.41 -35.8,2.68 -67.2,25.06 -81.2,58.04 -188.2,440.91 -706.4,714.41 -979.5,832.27 164.3,-680.04 83.9,-1492.53 -209.8,-2000.41 -145,-250.84 -333.7,-407.26 -545.7,-452.29 -51.9,-11.09 -102.8,22.09 -113.9,73.93 -11,51.85 22.1,102.84 74,113.88 198.7,42.25 337.8,219.4 419.4,360.59 291.8,504.67 352.1,1378.99 140.2,2033.73 -11.1,34.28 -2.1,71.82 23.3,97.32 25.4,25.49 63,34.75 97.2,23.71 36.7,-11.66 834.3,-271.96 1190,-850.56 l 39.3,63.9 c 17.4,28.23 48.2,45.51 81.3,45.7 h 0.5 c 33,0 63.7,-16.95 81.3,-44.93 203,-322.96 247.9,-847.69 111.7,-1305.69 -81.2,-273.12 -220.6,-500.34 -403.8,-663.76 29.8,-4.18 56.3,-22.18 71,-49.12 16.9,-30.82 15.5,-68.36 -3.4,-97.88 -7.5,-11.58 -185.7,-285.13 -528,-499.15 -205.1,-128.28 -496.2,-249.74 -862.5,-249.74" /></g><path
         id="path40"
         style="fill:#ffffff;fill-opacity:1;fill-rule:nonzero;stroke:none"
         d="m 15683.5,8516.5 -309.5,-236 -890.5,-678 c 0,0 -850,347.5 -2183.5,1097.5 -343.5,193.5 -667.5,478.5 -922.5,804.5 -734.5,939 -898.5,2216 672.5,2611 633.5,159 1184,66.5 1644.5,-142 1078,-487.5 1662.5,-1608 1662.5,-1608 l 276,-1564 50.5,-285" /><path
         id="path42"
         style="fill:#c3b2d5;fill-opacity:1;fill-rule:nonzero;stroke:none"
         d="m 13586.9,8241.8 c -328.9,164.5 -730.7,374.8 -1188.8,632.5 -163,91.7 -317.8,203.1 -460.8,328.3 246.9,-102.3 553.5,-191.1 873.5,-191.1 368.7,0 755.3,117.9 1089.2,469 810.8,853 617.7,1458.6 171.1,2045.8 95.9,-68.4 190.6,-144.2 284,-227.4 459.1,-408.9 738.2,-872.6 807.6,-995 19.1,-172.3 40.5,-346.8 64.4,-523 -669.5,-88.5 -1641.2,-485.2 -1640.2,-1539.1" /><path
         id="path44"
         style="fill:#390075;fill-opacity:1;fill-rule:nonzero;stroke:none"
         d="m 14483.3,7402.3 c -25.6,0 -51.3,4.9 -75.7,14.9 -35.2,14.4 -876.8,361 -2205.6,1108.5 -862.9,485.3 -1678.7,1560.1 -1550.5,2518.5 58.5,437.2 340.2,1011.4 1349.7,1265.2 933.1,234.6 1842.2,-14.6 2629.6,-720.4 582.5,-522.2 890.7,-1106.3 903.6,-1130.9 51.1,-97.9 13.1,-218.7 -84.8,-269.8 -98,-50.9 -218.6,-13.1 -269.8,84.6 -2.8,5.5 -293,552.5 -824.7,1026 -691.3,615.7 -1450.5,825 -2256.3,622.6 -636.1,-159.9 -989.6,-472.9 -1050.8,-930.3 -91.6,-684.3 526.7,-1653.7 1350.1,-2116.9 1041.8,-586 1792.2,-926.9 2056.7,-1042.3 l 1107.3,843.7 c 87.9,67 213.4,50 280.3,-37.8 67,-87.9 50,-213.4 -37.9,-280.3 l -1200,-914.3 c -35.3,-27 -78.1,-41 -121.2,-41" /><g
         transform="scale(1.79092)"
         id="g46"><path
           id="path48"
           style="fill:#929292;fill-opacity:1;fill-rule:nonzero;stroke:none"
           d="m 16281.3,6127.86 v -0.56 c -19.5,-530.74 -243.2,-1130.43 -935.3,-1595.27 -1358.8,-911.82 -2831.5,-9.22 -2831.5,-9.22 -76.2,-124.51 -174.5,-247.35 -254.6,-339.77 -101.1,-116.69 -234.5,-200.17 -383.9,-239.54 -662.2,-175.33 -1670.1,-79.84 -2050.05,-34.06 -96.32,11.73 -152.15,20.1 -152.15,20.1 0,0 -634.87,-135.4 -1374.99,0 -649.11,118.66 -600.25,649.11 -600.25,649.11 -20.94,746.82 930.8,781.72 930.8,781.72 -290.63,1996.18 0,3573.03 0,3573.03 0,0 3803.64,1582.7 4352.84,1182.3 549.1,-400.02 1293.4,-1460.93 1619.2,-1702.71 325.8,-241.49 1153.9,-716.67 1405.2,-1126.23 123.1,-200.74 293.4,-647.72 274.7,-1158.9" /></g><g
         transform="scale(1.77912)"
         id="g50"><path
           id="path52"
           style="fill:#d3d3d3;fill-opacity:1;fill-rule:nonzero;stroke:none"
           d="m 16276.2,6153.84 c -18.9,440.84 -166,814.73 -275.8,993.81 -253,412.28 -1086.5,890.61 -1414.5,1133.99 -198.7,147.26 -552,597.32 -922.6,1018.82 7.4,15.29 14.6,30.74 21.8,46.37 7.4,4.33 15,8.66 22.4,12.98 6.8,3.99 13.6,7.98 20.4,11.98 93.3,-106.91 185.6,-215.39 274.7,-320.05 255.9,-300.77 476.9,-560.5 628.7,-673.09 81.5,-60.48 189.9,-132.7 315.3,-216.4 376.3,-250.85 891.5,-594.34 1070.5,-885.94 107.8,-175.82 282.9,-608.96 259.1,-1122.47" /></g><g
         transform="scale(1.22627)"
         id="g54"><path
           id="path56"
           style="fill:#ffffff;fill-opacity:1;fill-rule:nonzero;stroke:none"
           d="m 16300,10763.5 c -170.4,1275.4 -1386.9,897.9 -1733.5,62 -532.7,835.9 -1342.3,881.7 -1469.9,112.1 315,-1481.6 952.5,-2520.77 1918.4,-3108.98 l 652.4,91.74 632.6,2843.14" /></g><g
         transform="scale(1.34796)"
         id="g58"><path
           id="path60"
           style="fill:#ffffff;fill-opacity:1;fill-rule:nonzero;stroke:none"
           d="m 16098.4,5461.08 c 201.6,774.95 -510,1671.12 -1863.1,1621.94 0,0 -1660.7,-294.97 -1373.2,-1259.39 287.4,-964.42 732.5,-662.26 2494.5,-646.39 0,0 593.5,116.03 741.8,283.84" /></g><g
         transform="scale(1.09356)"
         id="g62"><path
           id="path64"
           style="fill:#ffffff;fill-opacity:1;fill-rule:nonzero;stroke:none"
           d="m 14341.5,8804.1 c 0,0 1425.1,96.48 1958.5,-444.51 0,0 -873.2,-749.11 -379.4,-1738.63 0,0 -878,-265.56 -1525.7,-196.98 -647.8,68.59 -1409.8,53.32 -1684.1,754.42 -274.3,701.11 148.4,1110.05 500.9,1347.53 352.6,237.48 1129.8,278.17 1129.8,278.17" /></g><g
         transform="scale(1.80418)"
         id="g66"><path
           id="path68"
           style="fill:#390075;fill-opacity:1;fill-rule:nonzero;stroke:none"
           d="m 9602.77,4011.52 c 5.48,0 10.97,-0.39 16.35,-1.22 13.41,-2.05 1349.68,-198.31 2141.28,11.31 127,33.7 239.6,103.98 325.7,203.31 99.5,114.79 183.1,226.3 241.9,322.47 15.3,25.11 40,43.07 68.6,49.94 28.6,6.87 58.8,2.16 83.9,-13.25 3.4,-2.1 360.6,-217.66 871.4,-322.31 675.6,-138.45 1287.8,-27.77 1819.5,329.07 551.9,370.53 847.5,864.39 878.3,1467.93 26.1,510.59 -148.1,942.04 -255.1,1116.47 -176.5,287.55 -684.6,626.26 -1055.6,873.63 -123.7,82.53 -230.6,153.76 -310.9,213.4 -149.7,111.02 -367.6,367.14 -620,663.73 -322.2,378.62 -687.4,807.8 -986.6,1025.9 -69,50.3 -436.1,166.3 -2263,-452.95 -857.13,-290.49 -1674.73,-620.72 -1893.28,-710.18 -47.45,-301.8 -241,-1725.28 10.37,-3451.82 4.6,-31.15 -4.38,-62.75 -24.5,-86.91 -20.18,-24.22 -49.67,-38.69 -81.09,-39.8 -33.92,-1.39 -834.62,-40.41 -817.22,-662.13 0.17,-4.43 0,-8.87 -0.39,-13.3 -3.32,-42.96 -17.95,-429.45 505.39,-525.12 702.59,-128.42 1315.78,-1.88 1321.93,-0.55 7.54,1.55 15.3,2.38 23.06,2.38 m 1206.83,-309.11 c -570.5,0 -1093.76,70.11 -1203.95,85.8 -116.78,-22.4 -704.7,-121.55 -1387.78,3.43 -582.37,106.42 -703.76,537.31 -686.85,756.64 -12.91,599.05 533.65,823.36 908.89,872.97 -260.4,1922.54 14.13,3451.1 17.02,3466.62 6.76,36.91 31.76,67.84 66.4,82.26 9.48,3.93 959.05,398.13 1963.07,738.45 1863,631.62 2299.4,543.62 2465.6,422.52 320.6,-233.63 694.8,-673.38 1024.9,-1061.43 233.5,-274.31 454,-533.43 583.3,-629.43 75.8,-56.25 180.5,-126.04 301.8,-206.91 388.1,-258.73 919.6,-613.07 1121.5,-942.14 120.5,-196.21 316.5,-678.98 287.6,-1243.78 -23.8,-465.48 -212.4,-1128 -976.2,-1640.64 -576.7,-387.15 -1266.8,-511.81 -1995.3,-360.61 -392.3,81.43 -695,220.72 -840.5,296.48 -57,-82.92 -125.8,-170.99 -205.4,-262.89 -115.4,-133.13 -266.3,-227.3 -436.6,-272.42 -298.8,-79.15 -661.8,-104.92 -1007.5,-104.92" /></g><g
         transform="scale(1.23372)"
         id="g70"><path
           id="path72"
           style="fill:#390075;fill-opacity:1;fill-rule:nonzero;stroke:none"
           d="m 14378.2,5502.12 c -16.3,5.51 -24.2,8.6 -35,12.89 -10.1,4.05 -19.7,8.19 -29.3,12.4 -19,8.51 -37.4,17.51 -55.6,26.99 -36.2,18.97 -71,40.29 -104.8,63.47 -67.2,46.93 -130.3,102.29 -184.1,168.27 -53.9,65.66 -98.7,141.04 -129.3,221.93 -30.9,80.73 -47.4,166.16 -51.4,249.57 -8.2,167.78 28.9,325.52 83.1,466.96 13.6,35.58 27.6,70.92 43.8,104.48 l 23.5,50.99 25.8,49.28 26,48.95 29.3,47.34 58.7,94.35 c 10.2,15.48 18.9,31.86 30.3,46.61 l 34.3,44.33 68.9,88.52 c 22.4,29.99 51,55.28 76.3,83.08 26.5,26.67 51.2,55.2 79.5,80.24 l 86.7,73.28 c 14.8,11.83 28.6,24.88 44.1,35.74 l 47,32.18 c 31.7,21 62.1,43.77 94.9,62.82 l 100,54.71 c 135.9,67.76 280.1,118.67 428.6,148.25 74.4,14.35 149.3,24.97 225.4,29.34 l 56.9,2.92 57.7,0.16 c 19,0.33 39,-1.29 58.6,-1.94 9.5,-0.33 19.9,-1.22 30.3,-2.11 10,-0.89 20.2,-1.7 34.4,-3.57 l 0.2,-0.08 -178,-112.74 c 85.8,287.18 163.2,583.59 233.9,878.31 35.4,147.76 69.5,295.86 97.9,445 30.7,148.73 52.4,299.01 82.6,447.5 27.2,149.06 63.5,296.59 95,445 16.6,74.06 32.1,148.36 47,222.86 l 45.9,223.3 c 58.5,298.7 107.3,598.7 153.8,904.1 l 0.1,0.4 c 1.7,11.1 12,18.8 23.2,17.1 9.2,-1.4 16.1,-8.8 17.2,-17.5 41.1,-307.7 48.4,-619.7 40.7,-930.6 -8.2,-154.7 -13.2,-310.6 -29.6,-464.81 -12.1,-154.98 -30.5,-309.07 -56.4,-461.93 -27.7,-152.31 -62.5,-303.4 -97.6,-454 -16.6,-75.46 -34,-150.84 -52,-225.98 -17.4,-75.3 -33.8,-150.84 -52.5,-225.82 -72.4,-301.28 -149.7,-598.19 -239.3,-898.34 -22.2,-74.32 -93.6,-120.53 -168.1,-113.72 l -9.9,0.98 h -0.1 c -19.2,2.1 -53.3,4.29 -81.7,4.37 l -45,-0.08 -45.5,-2.43 c -60.8,-3.4 -121.6,-12.16 -181.8,-23.67 -120.2,-23.99 -236.1,-65.25 -345.2,-119.39 l -80.2,-43.77 c -26.4,-15.32 -50.7,-34.05 -76.1,-50.74 l -38,-25.62 c -12.5,-8.67 -23.6,-19.53 -35.4,-29.09 l -70.4,-59.1 c -22.9,-20.26 -42.9,-44.09 -64.6,-65.81 -20.7,-22.94 -44.5,-42.72 -62.8,-68.01 l -57,-73.68 -28.8,-36.71 c -9.7,-12.24 -16.9,-26.43 -25.5,-39.56 -138.2,-207.66 -246.9,-451.8 -236.4,-665.87 4.8,-106.59 41.3,-201.91 107.4,-282.24 32.6,-40.36 73.4,-76.27 118.3,-107.8 22.6,-15.48 46.3,-29.99 70.7,-42.88 12.3,-6.32 24.6,-12.4 36.8,-17.83 l 18,-7.62 13.1,-5.03 10.8,-4.13 c 83.5,-32.01 125.3,-125.64 93.2,-209.12 -31.1,-81.22 -120.9,-122.8 -202.5,-95.65" /></g><g
         transform="scale(1.02987)"
         id="g74"><path
           id="path76"
           style="fill:#390075;fill-opacity:1;fill-rule:nonzero;stroke:none"
           d="m 14987.1,9514.78 c 114.5,-3.88 220.8,-11.94 330.2,-21.55 108.4,-9.62 216.3,-21.56 323.8,-35.64 214.9,-27.48 428,-64.86 637.4,-111.86 13.2,-3.01 21.5,-16.02 18.6,-29.22 -2.5,-11.07 -12.2,-18.65 -23,-19.13 -212.8,-9.62 -423.7,-29.13 -632.6,-58.26 -104.5,-14.27 -208.5,-30.59 -311.8,-49.14 -102.5,-18.35 -207.8,-38.74 -304.4,-61.65 -105.3,-25.06 -210.9,40.1 -236,145.36 -25,105.35 40.1,210.9 145.4,235.95 17.1,4.08 34.2,5.73 51,5.24 l 1.4,-0.1" /></g><g
         transform="scale(1.15575)"
         id="g78"><path
           id="path80"
           style="fill:#390075;fill-opacity:1;fill-rule:nonzero;stroke:none"
           d="m 16026.2,8050.67 c -414.2,202.55 -783.4,498.64 -1085.7,846.03 -302.5,348.43 -537.1,747.99 -712.7,1164.9 -43.5,104.4 -82.4,210.5 -122.9,315.6 -36.9,106.5 -68.4,214.5 -102.8,321.4 -18.1,53.2 -29.5,108.2 -44.4,162.2 l -41.4,162.6 c -14.6,54.1 -25.8,108.8 -36.4,163.7 l -32.9,164 c -81.8,438.4 -127,880.6 -140.3,1322.4 -0.3,11.9 9.1,21.8 21,22.3 10.9,0.2 20,-7.3 22,-17.6 l 0.1,-0.2 c 84.4,-432.4 178.6,-860.3 302.1,-1277.3 60.1,-209 132.3,-413.4 206.8,-615.6 41.3,-99.7 79.7,-200.3 123,-298.5 46.1,-96.9 88.7,-195.3 136.3,-290.9 193,-381.16 427.4,-736.77 707.5,-1047.65 278.8,-312.53 605.1,-575.81 964.5,-792.56 l 1.8,-1.03 c 81.9,-49.41 108.2,-155.83 58.9,-237.69 -46.7,-77.35 -144.8,-104.77 -224.5,-66.1" /></g><g
         transform="scale(1.48009)"
         id="g82"><path
           id="path84"
           style="fill:#390075;fill-opacity:1;fill-rule:nonzero;stroke:none"
           d="m 15020.7,5530.69 c 121.4,256.14 233.8,517.13 339,781.24 52.6,132.09 103.9,264.78 152.4,398.56 49.2,133.57 92.7,269.24 136.2,404.91 85.4,271.74 192.6,536.52 294.6,804.14 103.7,267.15 207.4,535.04 323.7,800.56 3.7,8.65 13.8,12.57 22.4,8.85 7.1,-3.11 11,-10.4 10.1,-17.63 -33.4,-288.23 -86.5,-572.27 -148.7,-854.41 -63.7,-281.54 -131.3,-563.28 -232.1,-834.14 -49.3,-135.81 -101.8,-270.46 -152.1,-405.93 -50.3,-135.46 -101.7,-270.59 -155.4,-404.97 -107.1,-268.77 -221.7,-534.97 -346.1,-797.25 -31.9,-67.43 -112.5,-96.15 -180,-64.19 -67.4,31.96 -96.1,112.57 -64.2,179.99 l 0.2,0.27" /></g><g
         transform="scale(1.65489)"
         id="g86"><path
           id="path88"
           style="fill:#390075;fill-opacity:1;fill-rule:nonzero;stroke:none"
           d="m 14052.9,6506.36 c 94.6,203.52 235.1,385.16 404.5,533.99 42.5,37.1 86.6,72.57 132.7,105.39 23.3,16.13 46.4,32.32 70.8,47.01 23.8,15.16 47.9,30.03 72.9,43.5 98.4,56.38 204.1,100.37 313.1,132.94 108.9,32.75 222,52.33 335.5,56.44 113.4,4.6 226.9,-7.01 335.9,-31.48 218.5,-50.46 416.9,-158.14 575,-301.41 6.2,-5.68 6.7,-15.41 1,-21.63 -4.4,-4.96 -11.3,-6.29 -17.1,-3.87 l -0.3,0.12 c -97.3,40.31 -193.7,76.38 -291.5,101.88 -24.4,6.65 -48.6,13.35 -73.3,17.83 -24.6,4.95 -48.9,10.45 -73.5,13.83 -48.9,8.77 -98,14.08 -146.9,16.86 -195.3,13.3 -387.4,-19.27 -566.1,-85.44 -89.4,-33.42 -174.6,-77.29 -256.4,-126.72 -20.7,-12.02 -40.6,-25.44 -60.3,-39.03 -20.1,-13.05 -39.2,-27.62 -58.4,-42 -38.8,-28.16 -76.2,-58.43 -112.2,-90.28 -144.6,-127.01 -268.6,-277.72 -372.5,-442.32 l -0.7,-1.21 c -35.8,-56.56 -110.5,-73.48 -167.1,-37.83 -52,32.87 -70.5,98.98 -45.1,153.43" /></g><path
         id="path90"
         style="fill:#390075;fill-opacity:1;fill-rule:nonzero;stroke:none"
         d="m 14599.1,7052.8 c -6,30.7 -8.4,52.6 -11.4,77.9 -2.8,24.4 -5.1,48.6 -6.8,72.6 -3.8,48.1 -5.6,95.9 -6.3,143.5 -1.1,95.1 3.9,189.9 15,283.4 10.4,93.5 30.6,186.1 56.1,275.4 25.7,89.5 63.3,175.1 105.8,254.9 6.6,12.3 21.9,17 34.1,10.4 9.8,-5.2 14.7,-15.8 13.1,-26.1 l -0.2,-1.5 c -13.8,-86.2 -20.8,-171 -16.5,-255.8 4.6,-84.6 14.1,-167.7 32.5,-249.5 17.7,-81.7 40.5,-161.8 68.3,-239.6 14,-38.8 28.9,-77.2 45.1,-114.5 8,-18.7 16.3,-37.1 24.9,-55 8.3,-17.1 18.1,-37.3 25.4,-48.4 62.9,-94.9 37,-222.7 -57.9,-285.6 -94.8,-62.9 -222.7,-37 -285.6,57.8 -15.1,22.8 -25.1,47.6 -30.2,72.8 l -5.4,27.3" /><g
         transform="scale(1.13643)"
         id="g92"><path
           id="path94"
           style="fill:#390075;fill-opacity:1;fill-rule:nonzero;stroke:none"
           d="m 15935.2,6194.84 c -2.3,18.39 -1.4,24.99 -1.5,35.81 0,10.12 0.9,18.75 1.3,28.16 1.5,18.04 3.1,35.55 5.6,52.45 4.5,34.05 11.1,66.52 18.4,98.46 14.9,63.62 34.6,123.99 56.7,182.24 22.4,58.17 48.1,113.96 75.8,167.81 27.8,53.85 58.5,105.33 89.9,155.4 6.7,10.56 20.5,13.72 31,7.12 7.6,-4.83 11.4,-13.37 10.3,-21.73 v -0.53 c -7,-57.81 -12.5,-115 -14.3,-171.85 -2,-56.76 -1.3,-112.9 2.8,-167.81 4.3,-54.82 11.5,-108.49 22.7,-159.36 5.7,-25.34 12,-50.24 19.8,-73.3 3.6,-11.79 7.9,-22.7 12.2,-33.17 2.2,-4.84 4.3,-10.56 6.6,-14.43 2,-3.34 5.1,-10.91 5.8,-6.51 21.7,-94.77 -37.5,-189.19 -132.2,-210.93 -94.8,-21.73 -189.2,37.4 -210.9,132.17" /></g><g
         transform="scale(1.21912)"
         id="g96"><path
           id="path98"
           style="fill:#390075;fill-opacity:1;fill-rule:nonzero;stroke:none"
           d="m 15959.9,5687.61 c -2.1,17.23 -1.3,23.3 -1.4,33.39 0,9.52 0.8,17.55 1.3,26.24 1.3,16.82 2.8,33.23 5.2,48.97 4.2,31.75 10.3,62.02 17.1,91.71 13.9,59.31 32.3,115.58 53,169.88 20.8,54.3 44.7,106.3 70.6,156.42 25.8,50.2 54.4,98.27 83.7,144.94 6.3,9.76 19.1,12.72 29,6.57 7,-4.44 10.6,-12.47 9.7,-20.26 l -0.1,-0.5 c -6.6,-53.89 -11.7,-107.21 -13.4,-160.2 -1.9,-52.9 -1.2,-105.24 2.6,-156.34 4.1,-51.18 10.7,-101.22 21.2,-148.63 5.3,-23.62 11.2,-46.75 18.5,-68.33 3.3,-10.91 7.3,-21.16 11.3,-30.92 2,-4.43 4,-9.76 6.1,-13.45 1.9,-3.12 4.8,-10.17 5.4,-6.07 20.3,-88.26 -34.9,-176.28 -123.2,-196.62 -88.3,-20.26 -176.3,34.94 -196.6,123.2" /></g><g
         transform="scale(1.00623)"
         id="g100"><path
           id="path102"
           style="fill:#390075;fill-opacity:1;fill-rule:nonzero;stroke:none"
           d="m 15860.7,6961.71 c -10,32.09 -14.3,53.76 -19.7,79.4 -5.2,24.65 -9.5,49.09 -13.3,73.34 -7.6,48.6 -12.7,97 -16.5,145.2 -6.8,96.4 -5.3,192.8 4.1,287.61 8.6,94.71 28.6,188.23 56.7,277.27 26.1,89.74 69,173.22 113.8,251.23 6.8,11.93 22.1,16.1 34,9.25 9.6,-5.47 14.2,-16.2 12.2,-26.34 l -0.3,-1.99 c -16.4,-85.37 -28.8,-168.85 -24.7,-252.92 2.2,-83.48 12,-165.37 31.6,-245.07 18.8,-79.51 44.2,-156.83 75.7,-230.76 16,-36.88 32.8,-73.05 51.3,-107.83 9.3,-17.39 18.7,-34.49 28.6,-50.79 9.2,-15.4 20.8,-34.58 28.2,-42.44 77.6,-84.07 72.4,-215.15 -11.5,-292.77 -84.1,-77.61 -215.2,-72.54 -292.8,11.53 -21.3,22.96 -36.3,49.49 -45.2,77.51 l -12.2,38.57" /></g><path
         id="path104"
         style="fill:#390075;fill-opacity:1;fill-rule:nonzero;stroke:none"
         d="m 14031.6,11592.4 c -24.9,0 -50.1,4.6 -74.5,14.4 -102.5,41.2 -152.2,157.7 -111.1,260.2 372.6,927.8 1252.7,1369 1290,1387.4 99.1,48.8 218.9,7.8 267.7,-91.3 48.7,-99 7.9,-218.8 -91,-267.6 -12.7,-6.3 -782.3,-397.8 -1095.5,-1177.6 -31.3,-78 -106.4,-125.5 -185.6,-125.5" /><path
         id="path106"
         style="fill:#390075;fill-opacity:1;fill-rule:nonzero;stroke:none"
         d="m 11640.5,9207.2 c 0,0 126.2,584.5 867.8,901.1 741.7,316.7 1021.9,-171.8 752.6,-627.6 -269.2,-455.7 -552.6,-264 -860.9,-680.7" /><path
         id="path108"
         style="fill:#390075;fill-opacity:1;fill-rule:nonzero;stroke:none"
         d="m 11755,10351.3 c -133.1,-133 -336.9,-144.9 -455.2,-26.5 -118.4,118.3 -106.5,322.1 26.5,455.2 133,133 336.8,144.9 455.2,26.5 118.4,-118.4 106.5,-322.2 -26.5,-455.2" /><path
         id="path110"
         style="fill:#390075;fill-opacity:1;fill-rule:nonzero;stroke:none"
         d="m 12604,10603 c -176.9,-64 -366.5,11.7 -423.4,169.2 -57,157.4 40.2,336.9 217.1,400.9 176.9,64 366.5,-11.7 423.5,-169.2 56.9,-157.4 -40.3,-336.9 -217.2,-400.9" /><g
         transform="scale(1.49133)"
         id="g112"><path
           id="path114"
           style="fill:#776689;fill-opacity:1;fill-rule:nonzero;stroke:none"
           d="m 13566.9,9499.81 c -1167.9,0 -2381.4,474.2 -3097.2,1044.49 0.8,4.8 1.5,9.6 2.1,14.2 457.7,-116.1 951.1,-191.8 1478.1,-226.7 55.3,-65.8 118.2,-126.3 189.9,-179 151.1,-122.1 325,-183.75 502,-183.75 137.2,0.07 276.2,37.25 407.7,112.15 120,66.1 219.4,152.2 301.8,250.3 1138.4,74.5 2119.4,339.5 2924.8,790.8 8,-9 16,-18.1 23.9,-27.1 -563,-1170.47 -1627.5,-1595.46 -2733.1,-1595.39" /></g><g
         transform="scale(1.49371)"
         id="g116"><path
           id="path118"
           style="fill:#a493b7;fill-opacity:1;fill-rule:nonzero;stroke:none"
           d="m 16274,11077.6 c -7.9,8.9 -15.8,18 -23.8,26.9 16.7,9.4 33.3,18.8 49.8,28.3 -8.6,-18.6 -17.2,-37 -26,-55.2" /></g><path
         id="path120"
         style="fill:#390075;fill-opacity:1;fill-rule:nonzero;stroke:none"
         d="m 15613.8,15725 c -13.4,10.7 -26.7,21.4 -39.9,32.2 14.3,-3.7 28.6,-7.4 43,-11 -1,-6.9 -2,-14 -3.1,-21.2" /><g
         transform="scale(1.98957)"
         id="g122"><path
           id="path124"
           style="fill:#929292;fill-opacity:1;fill-rule:nonzero;stroke:none"
           d="m 12206.9,8456.6 c -674,-393.05 -1582.2,-628.28 -2711.89,-628.28 h -20.6 c -1129.64,0 -2037.88,235.23 -2711.9,628.28 -1445.28,842.39 -1811.94,2409.6 -972.06,3933.3 116.1,210.3 178.68,445.8 183.45,685.8 24.13,1210 448.34,3224.3 1096.22,3209.2 720.51,-16.8 1432.47,-1482.7 1432.47,-1482.7 654.91,217.9 1309.58,217.9 1964.21,0 0,0 712,1465.9 1432.5,1482.7 647.9,15.1 1072.3,-1999.2 1096.2,-3209.2 4.8,-240 67.6,-475.5 183.5,-685.8 840.1,-1524 473.2,-3090.91 -972.1,-3933.3" /></g><g
         transform="scale(1.97547)"
         id="g126"><path
           id="path128"
           style="fill:#d3d3d3;fill-opacity:1;fill-rule:nonzero;stroke:none"
           d="m 8675.59,14741.2 c -71.27,0 -139.36,34 -181.68,92.9 18.69,-17.6 43.59,-27.5 69.36,-27.5 10.63,0 21.41,1.7 31.94,5.1 317.69,105.7 637.47,158.6 957.29,158.6 319.77,0 639.6,-52.9 957,-158.6 10.6,-3.4 21.3,-5.1 32,-5.1 25.8,0 50.7,9.9 69.4,27.5 -42.3,-58.9 -110.4,-92.9 -181.7,-92.9 -19.8,0 -39.8,2.6 -59.6,8 -272.3,74.9 -544.76,112.4 -817.1,112.4 -272.44,0 -544.84,-37.5 -817.33,-112.4 -19.79,-5.4 -39.78,-8 -59.58,-8 m -234.62,184.8 c -235.14,415.4 -775.31,1251.6 -1320.4,1264.3 -2.43,0.1 -4.86,0.1 -7.29,0.1 -165.78,0 -316.88,-131.9 -450.42,-348.6 74.77,152.1 155,274 239.28,354.8 71.68,68.6 142.75,103.4 211.35,103.4 1.57,0 3.13,0 4.75,-0.1 517.4,-12.1 1101.46,-942.8 1322.73,-1373.9 m 2222.83,0 c 221.3,431.1 805.4,1361.8 1322.8,1373.9 1.9,0.1 3.8,0.1 5.7,0.1 68.3,0 139.1,-35.1 210.4,-103.5 84.4,-80.9 164.8,-203 239.7,-355.4 -133.7,217.1 -285,349.3 -450.9,349.3 -2.5,0 -4.8,0 -7.3,-0.1 -545.1,-12.7 -1085.2,-848.9 -1320.4,-1264.3" /></g><g
         transform="scale(1.78209)"
         id="g130"><path
           id="path132"
           style="fill:#d3d3d3;fill-opacity:1;fill-rule:nonzero;stroke:none"
           d="m 7470.15,14825.7 c 9.77,105.2 20.09,209.7 31.26,313.1 16.22,16.2 32.54,32.4 48.87,48.5 25.2,24.7 50.45,49.3 75.87,73.7 0,0.1 0,0.2 0.06,0.3 385.95,372.5 796.53,711.9 1237.08,1011.1 0.06,-0.1 0.11,-0.1 0.17,-0.2 8.87,6.1 17.67,12.2 26.43,18.2 4.77,3.2 9.54,6.4 14.31,9.6 48.03,-115.1 9.43,-248.1 -93.1,-320.6 -480.55,-339.4 -925.14,-727.2 -1340.95,-1153.7" /></g><g
         transform="scale(1.78015)"
         id="g134"><path
           id="path136"
           style="fill:#d3d3d3;fill-opacity:1;fill-rule:nonzero;stroke:none"
           d="m 13755.9,14841.9 c -416.3,427 -861.4,815.2 -1342.4,1155 -97.4,68.8 -137.2,192.2 -99.9,303.1 4.8,-3.3 9.6,-6.7 14.5,-10.1 0,0.1 0.1,0.2 0.1,0.3 441.1,-299.5 852.2,-639.3 1238.5,-1012.3 0,-0.1 0,-0.2 0,-0.2 18.7,-18 37.3,-35.9 55.8,-54 35.5,-34.8 70.9,-70 106.1,-105.4 9.6,-91.4 18.6,-183.7 27.3,-276.4" /></g><g
         transform="scale(1.90217)"
         id="g138"><path
           id="path140"
           style="fill:#f89fff;fill-opacity:1;fill-rule:nonzero;stroke:none"
           d="m 8350.08,15276.4 c -514.94,-344.4 -986.4,-747.3 -1423.79,-1196 73.49,789.1 177.53,1539.9 474.93,2049.4 80.12,137.2 262.59,170.2 384.67,68.5 234.57,-195.6 430.82,-599.2 564.19,-921.9" /></g><g
         transform="scale(1.64999)"
         id="g142"><path
           id="path144"
           style="fill:#776689;fill-opacity:1;fill-rule:nonzero;stroke:none"
           d="m 7984.91,16232.5 c 2.12,22.5 4.24,45.1 6.36,67.5 -2.12,-22.4 -4.24,-45 -6.36,-67.5 v 0" /></g><g
         transform="scale(1.66853)"
         id="g146"><path
           id="path148"
           style="fill:#a493b7;fill-opacity:1;fill-rule:nonzero;stroke:none"
           d="m 8064.18,16220.9 c 26.91,26.5 53.94,52.9 81.09,79.1 -0.06,-0.1 -0.06,-0.2 -0.06,-0.3 -27.15,-26.1 -54.12,-52.3 -81.03,-78.8" /></g><g
         transform="scale(1.84763)"
         id="g150"><path
           id="path152"
           style="fill:#776689;fill-opacity:1;fill-rule:nonzero;stroke:none"
           d="m 7273.26,15581.2 c 50.17,260 114.2,502.8 199.61,718.8 -85.41,-216.1 -149.44,-458.8 -199.61,-718.8" /></g><g
         transform="scale(1.78104)"
         id="g154"><path
           id="path156"
           style="fill:#a493b7;fill-opacity:1;fill-rule:nonzero;stroke:none"
           d="m 8868.68,16281.8 c -0.05,0.1 -0.11,0.1 -0.17,0.2 8.87,6 17.74,12 26.62,18 -8.76,-6 -17.58,-12.1 -26.45,-18.2" /></g><g
         transform="scale(1.89723)"
         id="g158"><path
           id="path160"
           style="fill:#776689;fill-opacity:1;fill-rule:nonzero;stroke:none"
           d="m 8371.85,15316.2 c -133.73,323.5 -330.49,728.2 -565.67,924.3 -47.6,39.7 -104.36,58.9 -160.66,59.5 56.3,-0.6 113.01,-19.8 160.6,-59.5 235.35,-196 431.95,-600.8 565.83,-924.2 -0.05,0 -0.05,-0.1 -0.1,-0.1" /></g><g
         transform="scale(1.89723)"
         id="g162"><path
           id="path164"
           style="fill:#be6fd5;fill-opacity:1;fill-rule:nonzero;stroke:none"
           d="m 6944.34,14117.2 c 1.84,19.5 3.69,39.1 5.53,58.6 33.15,346.9 72.9,685.3 133.25,998.1 48.86,253.2 111.21,489.6 194.39,700 42.01,106.3 89.39,206 143.05,297.8 48.65,83.3 134.77,128.3 222.32,128.3 0.9,0 1.74,0 2.64,0 56.29,-0.6 113.06,-19.9 160.65,-59.5 235.19,-196.1 431.95,-600.8 565.67,-924.3 -7.17,-4.7 -14.29,-9.5 -21.45,-14.4 -8.33,-5.6 -16.66,-11.2 -24.99,-16.9 -107.47,203.9 -233.92,395.1 -374.33,511.8 -48.34,40.4 -106.16,59.7 -163.4,59.7 -87.49,0 -173.57,-45 -222.16,-128.2 -213.42,-365.2 -327.27,-854.5 -402.12,-1393.1 -23.87,-23 -47.65,-46.2 -71.31,-69.5 -49.71,-48.9 -98.99,-98.4 -147.74,-148.4" /></g><g
         transform="scale(1.90217)"
         id="g166"><path
           id="path168"
           style="fill:#f89fff;fill-opacity:1;fill-rule:nonzero;stroke:none"
           d="m 11491,15276.4 c 515,-344.4 986.4,-747.3 1423.8,-1196 -73.4,789.1 -177.5,1539.9 -474.9,2049.4 -80.1,137.2 -262.6,170.2 -384.6,68.5 -234.6,-195.6 -430.9,-599.2 -564.3,-921.9" /></g><g
         transform="scale(1.70347)"
         id="g170"><path
           id="path172"
           style="fill:#ffffff;fill-opacity:1;fill-rule:nonzero;stroke:none"
           d="m 14257.1,9876.92 c -787.2,-459.06 -1848,-733.8 -3167.4,-733.8 h -24 c -1319.4,0 -2380.17,274.74 -3167.39,733.8 C 6063.23,11304.9 6486.77,12885.5 7734.23,13355.1 7935,16018.2 10684.1,16300 10801.5,13228 h 552.4 c 117.4,3072 2866.8,2790.2 3067.3,127.1 1247.4,-469.6 1671.3,-2050.2 -164.1,-3478.18" /></g><g
         transform="scale(1.90941)"
         id="g174"><path
           id="path176"
           style="fill:#390075;fill-opacity:1;fill-rule:nonzero;stroke:none"
           d="m 7594.44,16104.4 c -9.48,0 -19.06,-0.8 -28.7,-2.5 -47.45,-8.3 -88.82,-37.3 -113.38,-79.4 -243.9,-417.8 -356.81,-1004.3 -435.84,-1749.3 381.89,372.1 780.5,700.6 1188.32,979.1 -172.67,403.7 -343.14,677.4 -507.17,814.2 -29.91,24.9 -65.78,37.9 -103.23,37.9 z m -694.4,-2169 c -12.99,0 -26.13,2.7 -38.44,8.4 -35.25,16.3 -56.41,53 -52.79,91.7 82.95,891.3 197.23,1586 485.23,2079.4 51.84,88.8 139.31,149.9 240.02,167.6 100.19,17.5 202.57,-9.9 280.98,-75.2 199.01,-165.9 391.37,-477.9 588.14,-953.8 16.65,-40.4 2.56,-86.9 -33.78,-111.2 -484.5,-324 -956.79,-720.8 -1403.74,-1179.2 -17.65,-18.2 -41.48,-27.7 -65.62,-27.7" /></g><g
         transform="scale(1.86792)"
         id="g178"><path
           id="path180"
           style="fill:#776689;fill-opacity:1;fill-rule:nonzero;stroke:none"
           d="m 13151.7,14338.7 c 0,0 0,0.1 0,0.1 -69.1,740.9 -164.5,1448.7 -416.4,1961.2 252.1,-512.5 347.3,-1220.3 416.4,-1961.3" /></g><g
         transform="scale(1.66852)"
         id="g182"><path
           id="path184"
           style="fill:#a493b7;fill-opacity:1;fill-rule:nonzero;stroke:none"
           d="m 14533.8,16242.2 c -19.7,19.3 -39.5,38.4 -59.4,57.6 0,0 0,0.1 0,0.2 19.9,-19.2 39.6,-38.5 59.4,-57.8" /></g><g
         transform="scale(1.78082)"
         id="g186"><path
           id="path188"
           style="fill:#776689;fill-opacity:1;fill-rule:nonzero;stroke:none"
           d="m 12309,16293.9 c -3,2 -6,4.1 -8.9,6.1 3,-2 5.9,-4 8.9,-6 0,-0.1 0,-0.1 0,-0.1" /></g><g
         transform="scale(1.78016)"
         id="g190"><path
           id="path192"
           style="fill:#a493b7;fill-opacity:1;fill-rule:nonzero;stroke:none"
           d="m 12328,16289.8 c -4.8,3.4 -9.7,6.8 -14.5,10.1 0,0 0,0 0,0.1 4.9,-3.3 9.8,-6.6 14.7,-9.9 -0.1,-0.1 -0.1,-0.2 -0.2,-0.3" /></g><g
         transform="scale(1.89723)"
         id="g194"><path
           id="path196"
           style="fill:#776689;fill-opacity:1;fill-rule:nonzero;stroke:none"
           d="m 11521,15316.2 c 0,0 0,0.1 -0.1,0.1 31.2,75.3 65.8,155 103.4,235.4 -37.6,-80.4 -72.2,-160.1 -103.3,-235.5 m 283.4,575.1 c 74.3,121.5 155.5,231.2 242.4,313.7 -86.9,-82.5 -168.1,-192.2 -242.4,-313.7 m 242.7,313.9 c 0.1,0.2 0.2,0.3 0.4,0.4 -0.2,-0.1 -0.3,-0.2 -0.4,-0.4 m 47.1,41.3 c 45.7,35.5 99.3,52.8 152.5,53.5 -53.2,-0.7 -106.7,-18 -152.5,-53.5" /></g><g
         transform="scale(1.89723)"
         id="g198"><path
           id="path200"
           style="fill:#be6fd5;fill-opacity:1;fill-rule:nonzero;stroke:none"
           d="m 12948.5,14117.2 c -55,56.4 -110.5,112.1 -166.7,167 -17.4,17 -34.8,33.9 -52.3,50.9 -74.8,538.6 -188.7,1027.9 -402.2,1393.1 -48.6,83.2 -134.6,128.2 -222.1,128.2 -57.2,0 -115.1,-19.3 -163.4,-59.7 -140.4,-116.7 -266.9,-307.9 -374.4,-511.8 -4.5,3.1 -9.1,6.2 -13.7,9.3 -2.8,1.8 -5.5,3.7 -8.3,5.6 -8.2,5.6 -16.3,11.1 -24.4,16.4 31.1,75.3 65.7,155 103.3,235.5 54,115.3 114.3,232.1 180.1,339.6 74.2,121.5 155.5,231.2 242.4,313.7 0.1,0 0.2,0.1 0.3,0.2 0.1,0.1 0.2,0.2 0.4,0.3 12.9,12.3 26,24 39.2,35 2.5,2.1 4.9,4 7.5,6 45.8,35.4 99.3,52.8 152.4,53.5 1.2,0 2.3,0 3.4,0 87.5,0 173.7,-45 222.3,-128.3 23.2,-39.7 45.3,-81 66.2,-123.5 248,-504.6 342,-1201.5 410,-1931" /></g><g
         transform="scale(1.44068)"
         id="g202"><path
           id="path204"
           style="fill:#390075;fill-opacity:1;fill-rule:nonzero;stroke:none"
           d="m 10328.4,16281.4 c 11.6,2.7 18.9,4.1 27,5.6 8.2,1.7 15.9,3.2 23.6,4.1 15.3,2.2 30.8,4.2 45.7,5.4 30.4,2.3 60.1,3.5 90,2.9 29.8,-1.6 59.6,-2.3 89.1,-5.9 29.4,-4.2 58.9,-7.7 87.9,-14 116.1,-23.7 228.2,-67 329.3,-127.3 25.8,-13.8 50,-30.6 74,-47.2 23.6,-17.7 48.4,-32.6 69.9,-52.5 22.1,-18.9 44.4,-37.3 65.7,-56.7 21.2,-19.3 39.8,-41.8 59.4,-62.4 40.1,-40.5 71.6,-88.8 103.7,-134.6 16.5,-22.4 28.8,-48.2 41.9,-72.8 13.2,-24.7 25.1,-49.8 36.8,-74.6 4.2,-8.9 0.4,-19.4 -8.4,-23.6 -5.8,-2.7 -12.2,-2.1 -17.2,1.1 l -1.8,1.2 c -46.5,30 -86.9,63.2 -130.9,91.4 -44.8,27.1 -85.9,56.5 -131.5,78.9 -22.3,11.6 -43.1,25 -66.1,35 -22.9,9.7 -44.9,20.6 -67.1,30.7 -21.4,11.3 -45.6,17.5 -68,26.3 -22.5,8.8 -44.6,17.8 -68.1,23.7 -90.8,29.7 -183.4,48.2 -275.8,62.2 -46.1,7 -92.3,12.5 -138.6,17.3 -23,1 -46.1,4.8 -68.8,5.4 -11.6,1.4 -22.6,2 -33.6,2.6 l -16.1,1.3 c -5.2,0.4 -11,0.7 -12.7,1.6 l -71,38.4 c -62,33.5 -85.1,110.9 -51.6,172.8 18,33.4 49.2,55.6 83.3,63.7" /></g><g
         transform="scale(1.6729)"
         id="g206"><path
           id="path208"
           style="fill:#776689;fill-opacity:1;fill-rule:nonzero;stroke:none"
           d="m 15269.9,10794.9 c 462.6,597 586.4,1184.4 468.9,1675.4 165.6,476.4 212.3,994.5 136.2,1529.8 425,-1203.5 202.5,-2356.8 -605.1,-3205.2" /></g><g
         transform="scale(1.62736)"
         id="g210"><path
           id="path212"
           style="fill:#c3b2d5;fill-opacity:1;fill-rule:nonzero;stroke:none"
           d="m 12402.1,9728.29 c 101.1,207.89 150.5,432.51 174.4,612.41 834.1,113.9 1535.6,356.7 2099.1,695.3 750.8,450.9 1256.3,1071.6 1503.6,1783.3 120.8,-504.8 -6.4,-1108.6 -482,-1722.3 -231.9,-243.7 -510.8,-462.9 -835.2,-652 v 0 c -664.5,-387.5 -1504.3,-630.98 -2459.9,-716.71" /></g><g
         transform="scale(1.29617)"
         id="g214"><path
           id="path216"
           style="fill:#776689;fill-opacity:1;fill-rule:nonzero;stroke:none"
           d="m 9409.98,13931.9 c -635.95,667.9 -990.84,1482 -1046.7,2368.1 93.35,-325.2 228.21,-636.8 403.81,-930.3 56.4,-454.4 259.61,-943.5 642.89,-1437.8" /></g><g
         transform="scale(1.22219)"
         id="g218"><path
           id="path220"
           style="fill:#c3b2d5;fill-opacity:1;fill-rule:nonzero;stroke:none"
           d="m 14359.4,12954 c -1269.5,114.7 -2385.3,438.6 -3268.5,953.7 -431.6,251.6 -802.7,543.2 -1111.36,867.4 -406.48,524.3 -622,1043 -681.81,1524.9 374.66,-625.9 924.27,-1174 1642.47,-1605.5 838.5,-503.8 1906.2,-848.3 3193.6,-972 34,-230.9 99.6,-509.5 225.6,-768.5" /></g><g
         transform="scale(1.26874)"
         id="g222"><path
           id="path224"
           style="fill:#390075;fill-opacity:1;fill-rule:nonzero;stroke:none"
           d="m 16001.3,13704.5 c 0,0 1.2,-34.7 -0.4,-94.2 -8.3,-305 -87.1,-1263.8 -738.1,-1622.4 -307,-175 -637.3,-140.7 -897,70.9 -549,400.8 -618.7,1265.4 -626.6,1551.5 v 0.4 c -1.6,59.5 -0.4,93.8 -0.4,93.8 -42.2,695.6 -88.3,1226.8 -299.5,1640.6 554.5,-89 1185.4,104.1 1372.2,562.8 66.6,29.5 106.4,47.3 106.4,47.3 160.8,-490.7 810.3,-700.3 1382.1,-611.3 -210.1,-414.2 -256.2,-944.6 -298.7,-1639.4" /></g><g
         transform="scale(1.28289)"
         id="g226"><path
           id="path228"
           style="fill:#390075;fill-opacity:1;fill-rule:nonzero;stroke:none"
           d="m 12387.3,16096.5 c 23.1,-140 71.7,-269.5 147.6,-375.5 16.5,-27.9 40.7,-50.8 60.2,-75.9 22.8,-22.9 45.2,-45.8 69.6,-66.4 25,-20.2 48.3,-41.5 75.8,-58.5 13.4,-8.9 26.1,-18.2 39.7,-26.7 l 42,-23.3 c 27.1,-16.7 57.8,-28.3 85.8,-42.9 29.5,-12.7 59.6,-24.3 89.7,-35.4 61.3,-20.2 123.7,-36.8 187.3,-49.2 127,-26 258,-31.7 387,-27 129.3,5.6 256.7,29.2 377.2,64.9 120.3,36.8 232.8,90.4 326.1,160.2 92.9,70.7 166.5,154.5 211.4,253.8 45.9,98.1 60.1,210.8 52.4,331.9 l -0.3,2.7 c -5.4,86.1 59.9,160.3 145.9,165.8 78.9,5 147.8,-49.5 163,-124.9 32.6,-160.6 24.7,-343.3 -42.3,-508.5 -66.3,-164.6 -183.9,-305.3 -319.7,-404.3 -33.2,-26.8 -69.7,-46.3 -104.7,-69.4 -35.8,-20.8 -72.6,-38.9 -109.4,-57.4 -37.6,-15.2 -75.1,-31.2 -113.1,-45 -38.3,-11.9 -76.4,-25.6 -115,-35.4 -154.2,-42.1 -312.1,-56.8 -468.1,-54.3 -156.3,2.1 -311.3,28.3 -460.8,73.3 -149.1,46.2 -293.2,115 -418.4,212.7 l -46.2,37.2 c -14.9,13 -29,27.3 -43.5,40.9 -29.4,26.2 -54.7,57.5 -80.6,87.3 -25.1,30.6 -46.7,64.3 -68.1,97.2 -18.2,35.4 -40.1,67.9 -53.5,105.2 -61,144.7 -79.2,301.5 -56,446.9 1.7,10.7 11.8,18.1 22.6,16.3 8.6,-1.4 15,-8.2 16.4,-16.3" /></g><g
         transform="scale(2.00038)"
         id="g230"><path
           id="path232"
           style="fill:#390075;fill-opacity:1;fill-rule:nonzero;stroke:none"
           d="m 7024.9,16097 c -67.74,0 -137.92,-34.3 -208.71,-102.1 -429.52,-411.4 -753,-1907 -774.6,-2991.9 -5.1,-254.7 -72.49,-506.6 -194.91,-728.5 C 5026.73,10787 5391.61,9304.36 6776.3,8497.27 7462.07,8097.35 8377.29,7885.99 9423.19,7885.99 h 20.5 c 1045.81,0 1961.11,211.36 2646.91,611.28 v 0 c 1384.8,807.09 1749.6,2289.83 929.5,3777.33 -122.4,222.3 -189.7,474.2 -194.8,728.4 -21.4,1084.6 -344.7,2580.1 -774.5,2991.8 -72.5,69.4 -144.3,104.1 -213.5,102.1 -537.3,-12.5 -1147.4,-1028.1 -1337.1,-1418.4 -22,-45.2 -74,-67 -121.5,-51.2 -627.12,208.8 -1263.15,208.7 -1890.53,0 -47.64,-15.8 -99.53,6.1 -121.48,51.2 -189.71,390.3 -799.84,1405.9 -1337.09,1418.4 -1.6,0.1 -3.15,0.1 -4.7,0.1 M 9443.69,7686.02 h -20.5 c -1096.69,0 -2021.11,214.81 -2747.62,638.53 -726.51,423.42 -1204.57,1033.6 -1382.49,1764.55 -176.21,724.1 -45.34,1513.2 378.48,2282.1 106.88,193.5 165.67,413.4 170.07,635.8 19.89,996.5 321.54,2639.3 836.29,3132.3 112.18,107.4 231.65,160.7 356.33,157.5 676.42,-15.8 1310.2,-1141.4 1473.07,-1453.6 615.03,187.7 1237.36,187.7 1852.28,0.1 162.8,312.1 796.6,1437.7 1473,1453.5 124.8,3.1 244.3,-50.1 356.5,-157.6 515,-493.3 816.5,-2136 836.1,-3132.2 4.4,-222 63.2,-441.9 170.1,-635.9 423.9,-768.9 554.8,-1558.1 378.5,-2282.1 -177.9,-730.85 -655.9,-1340.98 -1382.5,-1764.5 -726.5,-423.67 -1651,-638.48 -2747.61,-638.48" /></g><g
         transform="scale(1.90941)"
         id="g234"><path
           id="path236"
           style="fill:#390075;fill-opacity:1;fill-rule:nonzero;stroke:none"
           d="m 11561.1,15252.3 c 407.8,-278.5 806.4,-607 1188.3,-979.2 -79,745 -191.9,1331.6 -435.8,1749.3 -24.6,42.2 -66,71.2 -113.5,79.5 -47.6,8.3 -94.4,-4.2 -131.9,-35.4 -164,-136.8 -334.4,-410.5 -507.1,-814.2 z m 1304.8,-1317 c -24.2,0 -48,9.6 -65.7,27.7 -446.9,458.5 -919.2,855.3 -1403.7,1179.3 -36.3,24.3 -50.4,70.8 -33.7,111.2 196.7,475.9 389.1,787.9 588.1,953.8 78.4,65.3 180.7,92.7 280.9,75.1 100.7,-17.6 188.2,-78.7 240.1,-167.6 288,-493.3 402.2,-1188 485.2,-2079.3 3.7,-38.7 -17.5,-75.4 -52.8,-91.7 -12.3,-5.7 -25.4,-8.5 -38.4,-8.5" /></g><g
         transform="scale(1.44068)"
         id="g238"><path
           id="path240"
           style="fill:#390075;fill-opacity:1;fill-rule:nonzero;stroke:none"
           d="m 15829,16006.5 c -1.6,-0.9 -7.5,-1.2 -12.6,-1.6 l -16,-1.3 c -11.1,-0.6 -22.1,-1.2 -33.7,-2.6 -22.7,-0.6 -45.8,-4.4 -68.8,-5.4 -46.2,-4.8 -92.4,-10.3 -138.7,-17.3 -92.2,-14 -184.9,-32.5 -275.7,-62.2 -23.5,-5.9 -45.6,-14.9 -68.1,-23.7 -22.4,-8.8 -46.5,-15 -68.1,-26.3 -22.1,-10.1 -44,-21 -67,-30.7 -22.9,-10 -43.7,-23.4 -66.1,-35 -45.5,-22.4 -86.7,-51.8 -131.4,-78.9 -44.1,-28.2 -84.5,-61.4 -131,-91.4 l -1.8,-1.2 c -8.2,-5.2 -19.2,-2.9 -24.5,5.4 -3.4,5.2 -3.6,11.8 -1.1,17.1 11.7,24.8 23.7,49.9 36.8,74.6 13.1,24.6 25.4,50.4 41.9,72.8 32,45.8 63.6,94.1 103.7,134.6 19.6,20.6 38.2,43.1 59.5,62.4 21.2,19.4 43.5,37.8 65.5,56.7 21.6,19.9 46.5,34.8 69.9,52.5 24.1,16.6 48.3,33.4 74.2,47.2 101,60.3 213.1,103.6 329.3,127.3 28.9,6.3 58.4,9.8 87.8,14 29.5,3.6 59.3,4.3 89,5.9 29.9,0.6 59.8,-0.6 90.1,-2.9 14.9,-1.2 30.4,-3.2 45.8,-5.4 7.5,-0.9 15.2,-2.4 23.5,-4.1 8.1,-1.5 15.5,-2.9 26.9,-5.6 68.7,-15.9 111.4,-84.4 95.5,-153.1 -8.6,-36.9 -32.4,-66.3 -63.3,-83.1 l -71.5,-38.7" /></g><g
         transform="scale(1.24546)"
         id="g242"><path
           id="path244"
           style="fill:#ff67a0;fill-opacity:1;fill-rule:nonzero;stroke:none"
           d="m 16300,13864.8 c -8.4,-310.8 -88.7,-1287.5 -751.9,-1652.8 -312.8,-178.3 -649.2,-143.4 -913.7,72.2 -559.3,408.3 -630.3,1289.1 -638.4,1580.6 v 0.4 c 406.7,1119.2 1821.4,1199.5 2304,-0.4" /></g><g
         transform="scale(1.23321)"
         id="g246"><path
           id="path248"
           style="fill:#c34893;fill-opacity:1;fill-rule:nonzero;stroke:none"
           d="m 15287.6,12380.6 c -142.6,0 -281.9,50.8 -405.6,151.4 -2.2,1.7 -4.5,3.5 -6.7,5.2 -99.7,72.8 -182.2,163.7 -250.6,264.7 132.3,-86.4 278.9,-131.2 429.4,-131.2 137.7,0 278.7,37.5 415.2,115.4 520.8,286.9 685.6,946.8 737.2,1373.9 32.7,-39.2 63.8,-80.8 93.5,-125.2 -4.5,-250.8 -62.3,-1221.8 -677.8,-1560.7 -109.7,-62.5 -223.2,-93.5 -334.6,-93.5" /></g><g
         transform="scale(1.23413)"
         id="g250"><path
           id="path252"
           style="fill:#ffc2d9;fill-opacity:1;fill-rule:nonzero;stroke:none"
           d="m 14286,14037.7 c -0.3,28.5 0,44.9 0.1,46.2 0.2,4.9 0.1,9.8 -0.2,14.8 -4.1,67 -8.2,132.6 -12.4,196.6 242.7,377.6 624.1,574.9 1009.1,574.9 378.4,0 760.2,-190.5 1017.4,-587.4 0,-0.1 0,-0.2 0,-0.3 -27,41.5 -55.3,80.8 -84.9,117.9 -2.9,-66.2 -8.7,-152.4 -20.6,-250.9 -250.1,299.4 -582.3,443.9 -911.7,443.9 -378.6,0 -753.5,-190.4 -996.8,-555.7" /></g><g
         transform="scale(1.23413)"
         id="g254"><path
           id="path256"
           style="fill:#e7b6d4;fill-opacity:1;fill-rule:nonzero;stroke:none"
           d="m 16287.9,14024.4 c -29.6,44.4 -60.7,86 -93.4,125.1 11.9,98.5 17.7,184.7 20.6,250.9 29.6,-37.1 57.9,-76.4 84.9,-117.9 -4,-59.9 -7.9,-121.2 -11.7,-183.7 -0.3,-4.9 -0.4,-9.9 -0.2,-14.8 0.1,-1.6 0.5,-22.9 -0.2,-59.6" /></g><g
         transform="scale(1.25777)"
         id="g258"><path
           id="path260"
           style="fill:#390075;fill-opacity:1;fill-rule:nonzero;stroke:none"
           d="m 14018.9,13702.9 c 10.5,-271 83.6,-1058.3 565.9,-1410.5 2.3,-1.7 4.6,-3.4 6.7,-5.2 215.9,-175.8 480.3,-196.5 725.7,-56.6 565.3,311.4 650.9,1164.3 663.2,1469.4 -195.7,459.9 -560.8,731.7 -984.3,731.7 -5.6,0 -11.2,-0.1 -16.8,-0.2 -423.2,-7.1 -788.8,-285.4 -960.4,-728.6 z m 970,-1882.8 c -209.8,0 -415.9,73.2 -595,217.9 -596.3,438.4 -683.9,1325.2 -693.8,1686.7 -0.1,1.4 -0.1,2.8 -0.1,4.3 0,18.6 3.3,37.3 9.5,54.7 213,586.1 697.5,956.2 1264.4,965.8 569.3,9.4 1071.8,-358.7 1314.1,-961.2 8.1,-20.2 12,-41.9 11.4,-63.6 -8.5,-313.5 -93.3,-1367.5 -826.8,-1771.6 -156,-88.9 -320.9,-133 -483.7,-133" /></g><g
         transform="scale(1.34536)"
         id="g262"><path
           id="path264"
           style="fill:#390075;fill-opacity:1;fill-rule:nonzero;stroke:none"
           d="m 16277.8,15349 c 22.2,-138.6 4.8,-288.1 -53.5,-426.1 -12.9,-35.5 -33.4,-66.7 -51,-100.3 -20.1,-31.6 -41.3,-63.2 -64.8,-92.8 -24.9,-28.1 -48.7,-58.3 -77,-83.2 l -41.3,-39.1 -44.1,-35.4 c -119.5,-92.9 -256.7,-159.1 -399,-202.8 -142.6,-42.7 -290.4,-67.6 -439.4,-69.7 -148.8,-2.4 -299.3,11.7 -446.4,51.9 -146.8,39.2 -292,101.2 -421.8,196.9 -130.7,92.9 -241.6,229.3 -303.7,386.5 -65.5,156.1 -72.4,331.4 -41.4,484.5 16.4,80.6 94.9,132.7 175.5,116.4 73.7,-14.9 123.6,-82 119.1,-155 l -0.3,-3.3 c -7,-115.2 5.3,-222.5 51.1,-316.1 41.7,-94.4 110.1,-176.5 200.2,-242.6 89.8,-65.5 196.9,-116.7 311.3,-152 114.9,-34.2 236.3,-56.8 359.6,-62.1 123,-4.5 248,0.9 369.1,25.6 60.7,11.9 120,27.6 178.7,46.7 28.2,11.2 57.5,21.3 85.2,34 27.1,13.7 56,25.2 82,40.8 l 40.1,22.2 37.8,25.4 c 26.3,16.1 48.2,36.8 72.4,55.8 22.8,20 44.8,41.2 66.2,63.5 18.9,23.7 41.6,45.8 57.4,72.3 72.4,101.1 118.8,224.5 140.8,358 1.6,10.3 11.3,17.3 21.6,15.6 8.1,-1.3 14.3,-7.8 15.6,-15.6" /></g><g
         transform="scale(1.28281)"
         id="g266"><path
           id="path268"
           style="fill:#390075;fill-opacity:1;fill-rule:nonzero;stroke:none"
           d="m 14696.6,11589.5 c -205.7,0 -407.9,71.7 -583.5,213.6 -689.4,506.9 -683.4,1634.8 -681,1748.4 -40.7,670.2 -85,1174.3 -279,1554.5 -39.2,76.7 -8.7,170.5 68,209.7 76.7,39.2 170.5,8.7 209.7,-68 222.1,-435.1 269.8,-972.5 312.9,-1684 0.3,-4.8 0.4,-9.5 0.3,-14.3 -0.3,-10.5 -24.6,-1072.8 556.2,-1497 2.2,-1.5 4.3,-3.2 6.4,-4.9 211.9,-172.3 471.3,-192.7 711.6,-55.6 678.4,373.5 652.1,1545.8 651.8,1557.7 -0.2,4.6 -0.1,9.5 0.2,14.1 43.5,711.6 91.5,1248.9 312.9,1683.8 39.1,76.8 132.9,107.4 209.6,68.3 76.8,-39.1 107.3,-133 68.2,-209.7 -193.4,-380.1 -237.9,-884.4 -279.1,-1554.7 2.6,-121.6 9.2,-1379.9 -811.2,-1831.6 -152.9,-87.1 -314.5,-130.2 -474,-130.3" /></g><g
         transform="scale(1.3139)"
         id="g270"><path
           id="path272"
           style="fill:#c3b2d5;fill-opacity:1;fill-rule:nonzero;stroke:none"
           d="m 13006.4,14251.4 c -520,185.9 -756.8,587.4 -861.7,961.1 6.5,-11.5 13,-23.1 19.1,-35 21,-32 42,-65 66.5,-94.9 25.3,-29 50,-59.6 78.7,-85.2 14.1,-13.3 27.9,-27.2 42.4,-39.9 l 45.2,-36.4 c 122.2,-95.3 262.9,-162.5 408.5,-207.6 20.7,-6.2 41.4,-12 62.3,-17.5 61.1,-132.8 105.5,-280.4 139,-444.6 m 167.4,701.4 c -45.7,0 -91.6,1.6 -137.2,5.2 -18.7,7.9 -38.8,12.1 -59.2,12.1 -9.2,0 -18.3,-0.9 -27.4,-2.5 -25.5,3.5 -50.9,7.9 -76.1,13 -62.2,12.1 -123,28.4 -182.9,48.1 -29.4,10.8 -58.8,22.1 -87.6,34.5 -27.4,14.3 -57.3,25.7 -83.8,41.9 l -41,22.8 c -13.2,8.2 -25.6,17.4 -38.7,26 -26.9,16.6 -49.6,37.4 -74.1,57.1 -23.8,20.2 -45.6,42.5 -67.9,64.9 -19.1,24.5 -42.7,46.9 -58.8,74.1 -74.1,103.5 -121.5,229.9 -144.2,366.6 -1.2,7.9 -7.6,14.6 -15.9,16 -1.1,0.2 -2.1,0.2 -3.1,0.2 -3.2,0 -6.2,-0.7 -8.9,-2.2 -6,174.4 8.9,290.5 8.9,290.5 249.4,-443.3 606.5,-618.3 930.4,-618.4 496,0 913.8,410.8 745.9,897.3 l 603.6,-63.2 v -326.3 c -2.6,0.2 -5.1,0.3 -7.7,0.3 -3.3,0 -6.6,-0.2 -9.9,-0.3 -84,-5.4 -147.8,-77.9 -142.5,-161.9 l 0.3,-2.7 c 7.5,-118.3 -6.4,-228.2 -51.1,-324.1 -43.9,-96.8 -115.8,-178.7 -206.4,-247.8 -91.1,-68.1 -201,-120.4 -318.5,-156.4 -117.6,-34.8 -242.1,-57.8 -368.3,-63.3 -25.9,-1 -51.9,-1.5 -77.9,-1.5" /></g><g
         transform="scale(1.21802)"
         id="g274"><path
           id="path276"
           style="fill:#390075;fill-opacity:1;fill-rule:nonzero;stroke:none"
           d="m 15485.7,15298.1 h -1107.8 c -29.7,178.7 -68.6,343.8 -121.5,497.4 13.9,-0.6 28,-0.9 42,-1.2 11.7,-0.1 23.4,-0.2 35.1,-0.2 152.9,0 307.1,16.3 457.9,57.5 40.6,10.3 80.7,24.8 121.1,37.2 40,14.6 79.5,31.5 119.1,47.5 38.8,19.5 77.5,38.5 115.2,60.4 36.9,24.3 75.4,44.8 110.3,73.1 85.5,62.3 164.3,140.5 228.6,230.2 v -1001.9" /></g><g
         transform="scale(1.28252)"
         id="g278"><path
           id="path280"
           style="fill:#390075;fill-opacity:1;fill-rule:nonzero;stroke:none"
           d="m 13612.7,14999.8 c -11.1,0 -22.3,0.1 -33.4,0.3 -13.3,0.2 -26.6,0.5 -39.9,1.1 -30,87 -64.8,170.2 -105.6,249.9 -17.4,34.1 -45.6,59.1 -78.3,72.9 46.8,-3.8 93.7,-5.4 140.6,-5.4 26.6,0 53.2,0.5 79.8,1.5 129.3,5.6 256.8,29.2 377.3,64.9 120.3,36.8 232.9,90.5 326.2,160.2 92.9,70.8 166.5,154.7 211.5,253.9 45.9,98.2 60,210.8 52.3,332 l -0.2,2.7 c -5.5,86.1 59.9,160.4 146,165.9 3.4,0.1 6.7,0.3 10.1,0.3 2.6,0 5.2,-0.1 7.9,-0.2 v -1 c -64,-8.9 -118.2,-57 -131.8,-123.9 -32.5,-160.6 -25.3,-344.4 43.4,-508.3 23.3,-59 53.3,-115.4 88.4,-167.8 v -18.5 c -61.2,-85.2 -135.9,-159.5 -217.2,-218.6 -33.1,-26.9 -69.7,-46.4 -104.7,-69.4 -35.8,-20.9 -72.6,-38.9 -109.4,-57.4 -37.7,-15.2 -75.2,-31.3 -113.1,-45.1 -38.4,-11.8 -76.4,-25.6 -115,-35.4 -143.3,-39.1 -289.7,-54.6 -434.9,-54.6 m -430.5,55.7 c -21.4,5.6 -42.7,11.5 -63.8,17.9 -149.2,46.3 -293.4,115 -418.6,212.7 l -46.2,37.3 c -14.9,13 -29,27.3 -43.4,40.9 -29.5,26.2 -54.8,57.5 -80.7,87.3 -25.1,30.6 -46.7,64.4 -68.1,97.2 -6.2,12.2 -13,24 -19.6,35.9 -54.9,195.4 -74.5,383.5 -79.6,530.7 2.7,1.5 5.9,2.3 9.1,2.3 1,0 2.1,-0.1 3.2,-0.2 8.5,-1.4 15,-8.3 16.3,-16.4 23.2,-140 71.8,-269.6 147.7,-375.6 16.5,-27.9 40.7,-50.8 60.2,-75.9 22.8,-23 45.2,-45.8 69.6,-66.5 25.1,-20.2 48.4,-41.5 75.9,-58.4 13.4,-8.9 26.1,-18.3 39.7,-26.7 l 42,-23.4 c 27.1,-16.6 57.8,-28.2 85.9,-42.9 29.4,-12.7 59.5,-24.3 89.6,-35.4 61.4,-20.2 123.8,-36.8 187.4,-49.2 25.9,-5.3 51.8,-9.7 78,-13.4 -14.5,-2.7 -29,-7.5 -42.8,-14.6 -76.7,-39.1 -107.1,-133 -68,-209.7 9.1,-17.7 17.7,-35.7 26.2,-53.9" /></g><g
         transform="scale(1.28242)"
         id="g282"><path
           id="path284"
           style="fill:#390075;fill-opacity:1;fill-rule:nonzero;stroke:none"
           d="m 14708.1,15500 c -35.1,52.4 -65,108.8 -88.4,167.8 -68.7,163.9 -75.9,347.7 -43.4,508.4 13.6,66.8 67.9,115 131.8,123.8 v -800" /></g><g
         transform="scale(1.20669)"
         id="g286"><path
           id="path288"
           style="fill:#390075;fill-opacity:1;fill-rule:nonzero;stroke:none"
           d="m 14512.9,15441.8 h -67.2 c -102.3,19 -196.8,44.7 -283.9,75.7 -36.4,178.8 -84.7,339.5 -151.3,484.1 -8.9,19.3 -18.1,38.4 -27.7,57.2 -41.6,81.6 -9.3,181.4 72.2,223 14.7,7.5 30,12.6 45.5,15.5 9.9,1.8 19.8,2.7 29.8,2.7 22.2,0 44.1,-4.6 64.4,-13.1 34.8,-14.6 64.8,-41.2 83.2,-77.4 43.4,-84.8 80.4,-173.2 112.3,-265.7 53.5,-155 92.7,-321.7 122.7,-502" /></g><g
         transform="scale(1.34276)"
         id="g290"><path
           id="path292"
           style="fill:#c3b2d5;fill-opacity:1;fill-rule:nonzero;stroke:none"
           d="m 15374.2,13944.8 c 32.6,159.9 75.7,303.9 135,433.4 22.8,5.9 45.5,12.2 68,18.9 142.6,43.8 280.1,110.2 399.8,203.3 l 44.2,35.4 41.4,39.2 c 28.3,24.9 52.1,55.2 77.1,83.3 23.6,29.7 44.8,61.4 64.9,93 2.8,5.3 5.5,10.4 8.3,15.5 -105.2,-360.5 -337.8,-743.4 -838.7,-922 m -157.3,686.8 c -25.7,0 -51.2,0.4 -76.7,1.4 -123.5,5.3 -245.2,27.9 -360.3,62.2 -114.7,35.4 -221.9,86.7 -311.9,152.3 -90.3,66.3 -158.8,148.5 -200.6,243.1 -45.9,93.7 -58.2,201.3 -51.2,316.7 l 0.3,3.3 c 4.5,73.2 -45.5,140.3 -119.3,155.3 -10,2 -20,3 -29.8,3 -4.3,0 -8.5,-0.2 -12.8,-0.5 v 319.4 l 591,61.8 c -164.2,-476 244.5,-878 729.7,-878 316.8,0 666.1,171.3 910.2,605.1 0,0 14.5,-112.8 8.8,-282.4 -0.2,0 -0.4,0 -0.6,0.1 -1.1,0.2 -2,0.2 -3,0.2 -9.2,0 -17.1,-6.6 -18.6,-15.8 -22.1,-133.8 -68.5,-257.5 -141.1,-358.8 -15.8,-26.6 -38.6,-48.6 -57.5,-72.4 -21.4,-22.3 -43.5,-43.6 -66.4,-63.6 -24.2,-19.1 -46.1,-39.8 -72.5,-55.9 l -37.9,-25.5 -40.2,-22.2 c -26,-15.7 -55,-27.2 -82.1,-40.9 -27.7,-12.8 -57.1,-22.8 -85.4,-34 -58.7,-19.2 -118.2,-35 -179,-46.9 -26,-5.3 -52.1,-9.7 -78.4,-13.3 -9.7,2 -19.5,3 -29.3,3 -20.4,0 -40.5,-4.3 -59.1,-12.3 -42,-3.1 -84.3,-4.4 -126.3,-4.4" /></g><g
         transform="scale(1.24958)"
         id="g294"><path
           id="path296"
           style="fill:#390075;fill-opacity:1;fill-rule:nonzero;stroke:none"
           d="m 16181.7,14911.8 h -1079.1 v 983.9 c 63.2,-91.4 141.8,-170.6 228.4,-232.1 139.7,-103.1 296,-169.9 454.1,-212 147.1,-40.3 297.5,-56.2 446.6,-56.2 11.3,0 22.6,0.1 34,0.2 11.4,0.2 22.9,0.5 34.3,0.9 -51.5,-149.7 -89.3,-310.5 -118.3,-484.7" /></g><g
         transform="scale(1.34229)"
         id="g298"><path
           id="path300"
           style="fill:#390075;fill-opacity:1;fill-rule:nonzero;stroke:none"
           d="m 15110.5,14332 c -138.7,0 -278.7,14.9 -415.7,52.3 -147.2,39.3 -292.7,101.4 -422.7,197.4 -80.7,57.3 -153.8,131 -212.6,216.1 v 776 c 4.3,0.4 8.5,0.5 12.8,0.5 9.8,0 19.8,-1 29.7,-3 74,-15 123.9,-82.1 119.4,-155.4 l -0.2,-3.3 c -7.1,-115.4 5.3,-223 51.2,-316.8 41.7,-94.6 110.3,-176.9 200.6,-243.1 90.1,-65.7 197.3,-117 312.1,-152.4 115.1,-34.3 236.8,-56.9 360.3,-62.2 25.6,-1 51.1,-1.4 76.7,-1.4 42.1,0 84.4,1.3 126.4,4.4 -30.8,-13.3 -57.3,-37 -73.7,-69.3 -38.8,-76.1 -72,-155.6 -100.6,-238.7 -10.7,-0.4 -21.3,-0.7 -32,-0.8 -10.6,-0.2 -21.1,-0.3 -31.7,-0.3 m 404.1,51.2 c 8.2,18.1 16.8,35.9 25.7,53.5 37.4,73.3 8.2,163 -65.2,200.3 -12.3,6.4 -25.1,10.8 -38.1,13.4 26.3,3.6 52.4,8 78.4,13.3 60.8,11.9 120.3,27.7 179.1,46.9 28.3,11.2 57.6,21.3 85.4,34 27.1,13.7 56.1,25.3 82.1,40.9 l 40.2,22.3 37.9,25.5 c 26.4,16.1 48.3,36.8 72.6,55.8 22.8,20.1 45,41.4 66.3,63.7 19,23.8 41.8,45.8 57.6,72.4 72.6,101.4 119.1,225.1 141.1,358.9 1.5,9.2 9.5,15.9 18.7,15.9 0.9,0 1.9,-0.1 2.9,-0.2 0.3,-0.1 0.5,-0.1 0.7,-0.2 -4.8,-145.7 -24.7,-333.4 -81.4,-527.6 -2.9,-5.1 -5.6,-10.3 -8.4,-15.5 -20.1,-31.7 -41.3,-63.4 -64.9,-93 -25,-28.2 -48.8,-58.5 -77.1,-83.4 l -41.5,-39.2 -44.1,-35.5 c -119.8,-93.1 -257.4,-159.5 -400,-203.3 -22.5,-6.7 -45.2,-13 -68,-18.9" /></g><g
         transform="scale(1.28281)"
         id="g302"><path
           id="path304"
           style="fill:#390075;fill-opacity:1;fill-rule:nonzero;stroke:none"
           d="m 15826.6,14525.5 h -64 c 28.2,169.7 65,326.4 115.2,472.2 29.9,87 64.7,170.2 105.3,249.8 17.2,33.8 44.9,58.6 77.1,72.5 19.5,8.4 40.5,12.8 61.9,12.8 10.2,0 20.5,-1 30.7,-3.1 13.6,-2.7 27,-7.3 39.9,-13.9 76.8,-39.1 107.3,-133 68.2,-209.7 -9.3,-18.4 -18.3,-37 -26.9,-55.9 -62.1,-135.6 -107.1,-286.3 -141.3,-453.7 -81.7,-29.2 -170.2,-53.1 -266.1,-71" /></g><g
         transform="scale(1.3969)"
         id="g306"><path
           id="path308"
           style="fill:#390075;fill-opacity:1;fill-rule:nonzero;stroke:none"
           d="m 14425.5,15507.2 c -135.7,-230.5 -408.8,-574.9 -910.6,-796.1 -501.8,221.2 -774.9,565.6 -910.6,796.1 -90.5,154.2 -61.5,351.8 69.8,473.2 76.6,70.5 160.4,125.6 244.1,168.9 l 1.5,0.4 c 389,150.3 785.6,149.9 1190.5,0 l 1,-0.4 c 83.8,-43.3 167.5,-98.4 244.1,-168.9 131.4,-121.4 160.8,-319 70.2,-473.2" /></g><g
         transform="scale(1.37998)"
         id="g310"><path
           id="path312"
           style="fill:#ffffff;fill-opacity:1;fill-rule:nonzero;stroke:none"
           d="m 14275.6,16098.5 c 0,-111.3 -264.7,-124.6 -591.1,-124.6 -326.4,0 -591,13.3 -591,124.6 0,111.3 264.6,201.5 591,201.5 326.4,0 591.1,-90.2 591.1,-201.5" /></g><g
         transform="scale(1.19314)"
         id="g314"><path
           id="path316"
           style="fill:#c3b2d5;fill-opacity:1;fill-rule:nonzero;stroke:none"
           d="m 15630.8,8125.53 c -327.7,203.74 -625.8,448.22 -882.3,735.87 -271.4,301.14 -498.5,645.61 -685.4,1014.8 -46.1,92.61 -87.4,187.9 -132.1,281.8 -41.9,95.1 -79.1,192.6 -119.1,289.1 -11,30 -22,60 -32.9,90.1 317.7,-594.03 855.6,-1437.02 1453.9,-1681.92 110.3,-45.09 213.4,-65.04 309.5,-65.04 334.6,0 584.6,241.89 757.6,505.39 -23.9,-114.07 -50.3,-227.63 -77.4,-341.03 -63,-262.33 -131.1,-526.01 -205.4,-783.73 l -39.8,-0.09 -58.9,-3.01 c -78.6,-4.53 -156.1,-15.51 -233,-30.34 -18.3,-3.61 -36.6,-7.63 -54.7,-11.9" /></g><g
         transform="scale(1.21537)"
         id="g318"><path
           id="path320"
           style="fill:#390075;fill-opacity:1;fill-rule:nonzero;stroke:none"
           d="m 15425.3,7923.65 c -8.3,7.82 -17.6,14.89 -27.8,20.98 l -1.7,0.99 c -17,10.36 -34,20.73 -51,31.27 17.9,4.19 35.8,8.14 53.7,11.68 75.6,14.56 151.6,25.34 228.8,29.78 l 57.8,2.96 39.1,0.09 c 72.9,253.01 139.8,511.86 201.6,769.39 26.7,111.32 52.6,222.81 76,334.79 203.1,309.46 298.2,649.19 298.2,649.19 l -389.3,-1847.09 -485.4,-4.03" /></g><g
         transform="scale(1.15015)"
         id="g322"><path
           id="path324"
           style="fill:#390075;fill-opacity:1;fill-rule:nonzero;stroke:none"
           d="m 16052.2,8370.88 c 0,0 -231.7,122.94 -518.9,354.22 l -542.4,554.27 -320.4,513.5 -687.4,1778.93 c 0,0 115.2,-274.9 310.9,-640.7 11.3,-31.2 22.7,-62.4 34.2,-93.5 41.4,-100.2 80.1,-201.3 123.5,-300 46.4,-97.3 89.1,-196.2 137,-292.3 193.9,-382.96 429.5,-740.31 711,-1052.7 266.1,-298.4 575.3,-552.01 915.3,-763.37 17.9,-11.13 35.9,-22.09 53.9,-33.05 l 1.7,-1.04 c 10.8,-6.43 20.6,-13.91 29.4,-22.17 l -247.8,-2.09" /></g><g
         transform="scale(1.11393)"
         id="g326"><path
           id="path328"
           style="fill:#776689;fill-opacity:1;fill-rule:nonzero;stroke:none"
           d="m 15925.3,8275.41 c -131.9,104.77 -301.2,180.71 -483.6,235.66 39.9,293.73 6.4,591.6 -58.3,862.26 38.3,-48.3 77.6,-95.88 118.2,-142.56 231.3,-265.9 500.5,-502.81 798.4,-693.22 l -84.6,-46.23 c -36.2,-21.1 -70,-46.33 -105.1,-69.58 l -52,-35.64 c -17.2,-12.03 -32.5,-26.48 -48.8,-39.59 l -84.2,-71.1" /></g><g
         transform="scale(1.08832)"
         id="g330"><path
           id="path332"
           style="fill:#c3b2d5;fill-opacity:1;fill-rule:nonzero;stroke:none"
           d="m 14638,6553.32 c -275.2,5.97 -579.9,29.86 -896.5,84.62 -0.8,1.47 -1.4,2.85 -2.1,4.32 -7.9,16.45 -15.6,33.36 -22.9,50.54 -14.9,34.27 -28.6,69.56 -41.5,105.21 -25.5,71.49 -46.5,145.08 -62.7,220.15 -7.2,31.61 -12.9,63.5 -17.4,95.66 349,-99.43 749.7,-141.51 1023.1,-190.3 -4.5,-69.92 -4.3,-140.68 0.7,-211.42 3.5,-44.57 8.2,-89.32 15.2,-134.25 1.3,-8.18 2.6,-16.36 4.1,-24.53 m 385.4,2.84 c -6.8,11.67 -15,22.79 -24.6,33.17 -6.8,7.26 -17.5,25 -26.1,39.24 -9.1,15.07 -17.8,30.88 -26.3,46.96 -17.2,32.16 -32.8,65.6 -47.6,99.69 -14.4,33.9 -27.4,68.45 -39,103.74 22.9,-2.57 43.7,-3.86 63,-3.86 313.3,0 186,343.37 697.6,1268.19 100.5,181.75 158.2,373.97 184.6,568.04 186.7,-56.24 360,-133.97 495,-241.2 l -12.1,-10.29 c -32.1,-28.4 -60.1,-60.74 -90.2,-90.97 -28.6,-31.51 -61.1,-60.19 -86.4,-94.18 l -78.1,-100.34 -38.9,-50.26 c -13,-16.72 -22.8,-35.28 -34.4,-52.83 l -66.6,-106.96 -33.2,-53.66 -29.4,-55.5 -29.3,-55.86 -26.6,-57.8 c -18.4,-38.04 -34.3,-78.1 -49.6,-118.44 -61.5,-160.34 -103.6,-339.15 -94.3,-529.35 4.6,-94.55 23.2,-191.4 58.2,-282.91 24.4,-64.32 56.7,-125.51 94.9,-182.03 -136.4,-22.41 -408,-59.9 -760.6,-72.59 m -1631.3,175.87 c -564.2,231.92 -545.2,723.78 -540.4,785.62 0.6,7.35 0.9,14.7 0.6,22.05 -2.3,82.61 4.1,158.96 17.8,229.53 -1.3,-305.24 241.9,-486.35 562,-602.95 -11.6,-51.18 -20.7,-103.09 -26.5,-155.29 -10.2,-85.91 -14.8,-173.02 -13.8,-260.4 0.1,-6.24 0.2,-12.4 0.3,-18.56" /></g><g
         transform="scale(1.06018)"
         id="g334"><path
           id="path336"
           style="fill:#390075;fill-opacity:1;fill-rule:nonzero;stroke:none"
           d="m 14910.7,6572.95 c -254.7,0 -515.5,13.58 -755.1,49.99 11.3,49.9 2.9,104.04 -27.6,149.98 -6.3,9.53 -14.4,26.13 -21.8,41.22 325.1,-56.22 637.8,-80.74 920.3,-86.87 2.5,-14.72 5.3,-29.53 8.4,-44.43 5.2,-24.34 9.3,-44.9 18.8,-75.36 l 10.4,-32.92 c -50.8,-1.04 -101.9,-1.61 -153.4,-1.61 m 534.3,17.83 c 9.8,46.88 2.3,96.78 -22.8,139.41 361.9,13.02 640.8,51.5 780.7,74.52 16.7,-24.72 34.5,-48.58 53.2,-71.41 14.1,-17.26 28.8,-33.95 43.9,-49.99 -41.3,-7.54 -191.7,-30.75 -405.7,-53.86 -129.8,-14.05 -282.8,-28.1 -449.3,-38.67 m -1683.7,121.86 c -131.2,42.55 -247.3,96.69 -341.1,164.79 -751.9,545.85 -185.1,1269.79 -185.1,1269.79 -15.6,-61.13 -23.2,-118.28 -23.4,-171.76 -14,-72.45 -20.6,-150.83 -18.3,-235.63 0.3,-7.54 0,-15.09 -0.6,-22.63 -4.9,-63.48 -24.4,-568.4 554.8,-806.47 0.8,-38.58 2.5,-77.35 5.7,-116.3 1.6,-22.64 3.7,-45.47 6.4,-68.48 0.4,-4.53 1,-8.87 1.6,-13.31" /></g><g
         transform="scale(1.11746)"
         id="g338"><path
           id="path340"
           style="fill:#390075;fill-opacity:1;fill-rule:nonzero;stroke:none"
           d="m 15464.4,6340.72 c -14.3,15.21 -28.2,31.05 -41.6,47.43 -17.8,21.65 -34.6,44.29 -50.4,67.74 -37.3,55.04 -68.7,114.64 -92.4,177.28 -34.1,89.13 -52.3,183.45 -56.7,275.53 -9.1,185.24 31.9,359.39 91.8,515.55 14.9,39.28 30.4,78.3 48.3,115.35 l 26,56.29 28.4,54.4 28.7,54.06 32.4,52.26 64.8,104.16 c 11.3,17.1 20.9,35.17 33.5,51.46 l 37.9,48.95 76,97.72 c 24.7,33.11 56.3,61.03 84.2,91.73 29.3,29.44 56.6,60.94 87.8,88.59 l 11.8,10.02 84,70.88 c 16.3,13.06 31.5,27.47 48.6,39.46 l 51.9,35.53 c 35,23.18 68.6,48.32 104.8,69.35 l 84.3,46.09 c 17,-10.92 34.2,-21.74 51.5,-32.31 -90.2,-129.94 -284.8,-369.32 -673,-703.91 -610,-525.57 -190.5,-1431.2 -152.3,-1431.2 v 0 c 0.1,0 0.1,0 0.1,0 1.8,0 -1.9,-0.89 -10.4,-2.41" /></g><g
         transform="scale(1.12219)"
         id="g342"><path
           id="path344"
           style="fill:#390075;fill-opacity:1;fill-rule:nonzero;stroke:none"
           d="m 16231.3,8442.51 c -17.2,10.51 -34.3,21.29 -51.3,32.17 -295.7,189 -563,424.17 -792.6,688.12 -40.3,46.33 -79.3,93.56 -117.3,141.51 -134.3,562.11 -404.7,1005.59 -428.3,1043.89 l 194.2,-311.3 59.6,-154.17 c 226.8,-401.81 550.4,-719.22 824.8,-940.22 L 16300,8554.7 c 0,0 -17.4,-38.32 -68.7,-112.19" /></g><path
         id="path346"
         style="fill:#390075;fill-opacity:1;fill-rule:nonzero;stroke:none"
         d="m 15007.5,7021.5 c -149,22.7 -290.4,53.7 -418.1,95.1 -0.6,4.7 -1.2,9.3 -1.7,14.1 -2.8,24.4 -5.1,48.6 -6.8,72.6 -3.3,41.3 -5.1,82.4 -6,123.3 -0.1,6.7 -0.2,13.4 -0.3,20.2 -1.1,95.1 3.9,189.9 15,283.4 6.3,56.8 16.2,113.3 28.8,169 57.1,-20.9 116.5,-39.8 177.2,-57.1 4.9,-35 11.1,-69.7 18.9,-104.1 17.7,-81.7 40.5,-161.8 68.3,-239.6 14,-38.8 28.9,-77.2 45.1,-114.5 8,-18.7 16.3,-37.1 24.9,-55 0.8,-1.6 1.5,-3.1 2.3,-4.7 7.8,-16 16.4,-33.6 23.1,-43.7 32.3,-48.7 41.2,-106.1 29.3,-159" /><g
         transform="scale(1.0052)"
         id="g348"><path
           id="path350"
           style="fill:#390075;fill-opacity:1;fill-rule:nonzero;stroke:none"
           d="m 15887.9,6934.12 -10.9,34.73 c -10,32.13 -14.3,53.81 -19.8,79.48 -3.3,15.72 -6.3,31.34 -8.9,46.86 -1.5,8.85 -2.9,17.7 -4.3,26.56 -7.7,48.65 -12.8,97.09 -16.5,145.35 -5.4,76.59 -5.7,153.19 -0.8,228.9 40.9,-7.26 79.2,-14.62 114.2,-22.38 56.3,-12.44 105,-21.09 147.6,-25.87 12.5,-38.2 26.7,-75.6 42.3,-112.31 16,-36.91 32.8,-73.12 51.4,-107.94 9.3,-17.41 18.7,-34.52 28.6,-50.84 9.2,-15.42 20.9,-34.62 28.2,-42.48 10.4,-11.24 19.2,-23.28 26.7,-35.91 26.4,-44.97 34.3,-97.59 24.1,-147.04 -127.9,-8.15 -263.3,-14.32 -401.9,-17.11" /></g><g
         transform="scale(1.0218)"
         id="g352"><path
           id="path354"
           style="fill:#390075;fill-opacity:1;fill-rule:nonzero;stroke:none"
           d="m 16300,11364.9 -1.9,2.8 c 0,0 0.7,-1 1.9,-2.8" /></g><g
         transform="scale(1.09606)"
         id="g356"><path
           id="path358"
           style="fill:#390075;fill-opacity:1;fill-rule:nonzero;stroke:none"
           d="m 16300,9155.74 c -280.9,226.27 -612.3,551.25 -844.5,962.66 l -60.9,157.8 336.2,-538.83 569.2,-581.63" /></g><g
         transform="scale(1.08117)"
         id="g360"><path
           id="path362"
           style="fill:#390075;fill-opacity:1;fill-rule:nonzero;stroke:none"
           d="m 16300,7885.01 -87.4,-242.8 c 13.4,137.36 87.4,242.8 87.4,242.8" /></g><g
         transform="scale(1.77006)"
         id="g364"><path
           id="path366"
           style="fill:#776689;fill-opacity:1;fill-rule:nonzero;stroke:none"
           d="m 12279.5,4264.43 c 29.2,243.16 -54.4,493.54 -237,696.75 603.3,703.43 993.8,1783.78 1195.5,2326.7 112.2,301.86 207.2,427.22 271.4,427.22 78.7,0 111.1,-188.3 72,-470.38 -89.1,-206.72 -169.7,-414.9 -250.3,-622.58 -85.3,-223.77 -174.9,-445.18 -246.3,-672.4 -36.4,-113.44 -72.8,-226.89 -113.9,-338.58 -40.6,-111.86 -83.5,-222.82 -127.4,-333.26 -87.3,-219.04 -180.4,-435.41 -281,-647.89 -59.8,-96.89 -143.8,-208.64 -243.4,-323.66 -12.7,-14.58 -25.9,-28.59 -39.6,-41.92 m 1889.3,20.62 c -181.3,0 -367.9,19.6 -559.6,58.87 -370.4,75.93 -661.5,209.03 -800,280.27 86.7,187.96 167.8,378.24 244.2,570.04 44.9,112.37 87.9,225.36 129.9,338.63 18.7,50.34 37.8,100.56 56.8,150.73 -10.1,-383.6 103.1,-718.56 469.3,-928.67 119.9,-68.7 273.4,-100 446.6,-100 703.3,0 1730.7,515.86 2144,1133.97 -116.3,-442.24 -396.4,-814.32 -836.2,-1109.56 -391.1,-262.48 -824.9,-394.28 -1295,-394.28" /></g><g
         transform="scale(1.33663)"
         id="g368"><path
           id="path370"
           style="fill:#c3b2d5;fill-opacity:1;fill-rule:nonzero;stroke:none"
           d="m 14563,5297.94 c -253.6,0.97 -500.7,12.27 -721.3,27.46 -0.4,2.84 -1,5.69 -1.6,8.53 -0.2,-0.82 -0.4,-1.2 -0.7,-1.2 -1,0 -2.9,4.49 -4.3,6.73 -1.9,3.29 -3.7,8.16 -5.6,12.28 -3.6,8.9 -7.2,18.18 -10.3,28.2 -6.6,19.6 -12,40.77 -16.8,62.32 -9.6,43.24 -15.7,88.88 -19.3,135.49 -3.3,43.62 -4.1,88.13 -2.7,133.17 126.6,-16.23 276.3,-25.36 452.5,-25.36 50.1,0 102.2,0.75 156.6,2.24 115.2,3.22 227.2,18.78 336.1,45.34 -12.4,-21.32 -24.4,-43.02 -35.8,-65.24 -23.6,-45.71 -45.5,-93.14 -64.5,-142.67 -18.8,-49.53 -35.6,-100.85 -48.2,-154.94 -5.4,-23.57 -10.3,-47.51 -14.1,-72.35 m 264.5,2.92 c -6.6,19.53 -11.9,40.63 -16.7,62.02 -9.6,43.25 -15.6,88.88 -19.3,135.57 -3.5,46.61 -4.1,94.34 -2.4,142.59 1.2,36.96 4.2,73.99 8.2,111.33 434.1,126.81 816.6,428.69 1150.2,817.58 241.8,-269.11 352.5,-600.69 313.8,-922.7 -107.9,-104.89 -240.4,-180 -387.2,-218.9 -308,-81.55 -676.9,-117.61 -1046.6,-127.49 m -1276.7,47.73 c -72.5,6.59 -139.9,13.32 -201,19.75 l -16.4,6.96 c -11.3,5.01 -22.6,10.63 -33.9,16.46 -22.5,11.9 -44.4,25.29 -65.3,39.58 -41.5,29.1 -79.1,62.25 -109.2,99.5 -61,74.14 -94.7,162.12 -99.1,260.51 -3.8,76.91 9.1,158.01 33.8,239.7 l 38,105.42 c 4.9,11.9 10.1,23.79 15.4,35.61 -11.3,-156.21 77.6,-358.21 558.3,-444.47 -19.8,-39.66 -38.2,-80.58 -54.6,-123 -18.7,-49.53 -35.5,-100.85 -48.1,-154.94 -6.3,-27.16 -11.9,-54.77 -15.7,-83.72 -0.9,-5.69 -1.6,-11.45 -2.2,-17.36" /></g><g
         transform="scale(1.77904)"
         id="g372"><path
           id="path374"
           style="fill:#390075;fill-opacity:1;fill-rule:nonzero;stroke:none"
           d="m 10948.3,3867.7 c -210.6,0.5 -414.9,10.4 -593.8,23.38 33.9,24.45 52.4,66.78 45.1,110 165.7,-11.41 351.3,-19.9 541.9,-20.63 -0.4,-2.81 -0.8,-5.67 -1.2,-8.48 -1.6,-10.79 -2.6,-22.04 -3.6,-33.56 -0.3,-5.96 -0.8,-11.47 -0.8,-17.99 0,-6.91 -0.5,-11.07 0.9,-22.88 2.5,-10.68 6.4,-20.68 11.5,-29.84 m 197.5,2.47 c 12.2,22.99 16.4,50.31 10.2,77.68 -0.1,-0.62 -0.3,-0.84 -0.5,-0.84 -0.7,0 -2.2,3.32 -3.2,5 -1.5,2.53 -2.8,6.19 -4.2,9.22 -2.7,6.69 -5.5,13.71 -7.8,21.19 0,0.06 0,0.17 -0.1,0.23 277.8,7.42 555,34.51 786.3,95.78 110.3,29.23 209.9,85.66 291,164.47 13.6,13.26 26.8,27.2 39.4,41.71 99.1,114.44 182.7,225.62 242.2,322.03 -0.9,-1.81 -1.7,-3.6 -2.6,-5.34 l -0.1,-0.23 c -24.3,-51.38 -6.3,-111.92 40,-142.16 -63.9,-91.73 -134.3,-178.41 -194.7,-247.94 -101.7,-117.48 -236,-201.51 -386.4,-241.14 -240,-63.52 -525.1,-91.73 -809.5,-99.66 m -936.4,32.49 c -31.6,2.75 -62,5.56 -91.1,8.37 4.9,49.13 -23.3,97.42 -71.5,115.91 l -7.5,2.87 -9.1,3.48 -0.2,0.06 c 45.9,-4.84 96.5,-9.9 151,-14.84 -0.8,-6.69 -1.4,-13.55 -1.9,-20.46 -0.3,-6.02 -0.9,-11.53 -0.9,-17.99 0.1,-6.91 -0.5,-11.13 1,-22.88 4.9,-21.47 15.7,-40.07 30.2,-54.52 m 3883.6,249.23 c -646.8,0 -1183.4,237.55 -1396.4,347.05 1.1,1.91 2.1,3.82 3,5.79 15.2,31.98 30.1,64.02 44.9,96.12 137.8,-70.89 427.5,-203.32 796,-278.86 190.7,-39.07 376.4,-58.57 556.7,-58.57 467.8,0 899.4,131.13 1288.5,392.28 437.6,293.76 716.3,663.96 832,1103.97 31,46.48 58.6,93.48 82.3,140.92 l -47.4,-198.37 -62.7,-261.94 -29.5,-123.1 c 0,-0.05 0.1,-0.05 0.2,-0.11 -146.4,-267.95 -373.6,-527.36 -712.1,-754.79 -459,-308.03 -931.1,-410.39 -1355.5,-410.39" /></g><g
         transform="scale(1.10488)"
         id="g376"><path
           id="path378"
           style="fill:#390075;fill-opacity:1;fill-rule:nonzero;stroke:none"
           d="m 16292.1,6297.4 c -143.2,13.76 -267.1,27.7 -365.1,39.47 l -321.7,421.76 193.7,537.43 c -29.9,-98.83 -45.5,-196.94 -41,-289.98 5.4,-119.02 46.1,-225.46 120,-315.15 36.3,-45.07 81.9,-85.16 132,-120.37 25.4,-17.29 51.8,-33.49 79,-47.88 13.7,-7.06 27.5,-13.85 41.1,-19.91 l 19.8,-8.42 0.3,-0.09 14.7,-5.61 12,-4.62 c 77.8,-29.77 123.1,-107.52 115.2,-186.63 m -447.2,1126.19 19.7,54.57 c -0.4,-3.8 -0.8,-7.69 -1,-11.49 -6.5,-14.3 -12.7,-28.69 -18.7,-43.08" /></g><g
         transform="scale(1.47484)"
         id="g380"><path
           id="path382"
           style="fill:#390075;fill-opacity:1;fill-rule:nonzero;stroke:none"
           d="m 15122.2,5378.62 c -55.9,36.47 -77.6,109.5 -48.2,171.47 l 0.1,0.27 c 1,2.1 2,4.27 3.1,6.45 120.6,255 232.5,514.69 337.1,777.57 52.8,132.56 104.3,265.72 153,399.98 49.4,134.04 93,270.19 136.7,406.34 85.6,272.71 193.2,538.43 295.6,807.01 96.8,249.24 193.5,499.1 300.4,747.2 -21.1,-152.09 -59.5,-326.82 -117.9,-514.03 -46.9,-150.45 -93.4,-303.42 -135.2,-456.25 -112.3,-127.74 -207,-270.33 -278.4,-423.98 -28.5,-61.09 -7.8,-135.27 50.6,-172.15 22.5,-14.17 47.6,-20.95 72.4,-20.95 7.9,0 15.8,0.68 23.5,2.03 -13.5,-98.04 -22.1,-194.33 -24.6,-288.3 -22.8,-60.21 -45.7,-120.49 -68.1,-180.9 -50.5,-135.95 -102.1,-271.56 -156,-406.42 -91.7,-230.19 -189,-458.56 -293,-684.14 -17.9,-38.72 -36,-77.36 -54.3,-115.94 -1.1,-2.38 -2.3,-4.68 -3.6,-6.99 -76.9,39.53 -118.8,65.23 -118.8,65.23 -23.4,-38.17 -48.5,-76.21 -74.4,-113.5" /></g><g
         transform="scale(1.45194)"
         id="g384"><path
           id="path386"
           style="fill:#390075;fill-opacity:1;fill-rule:nonzero;stroke:none"
           d="m 16142.1,7219.66 c -25.1,0 -50.6,6.88 -73.4,21.28 -59.4,37.47 -80.4,112.81 -51.5,174.87 72.5,156.06 168.7,300.91 282.8,430.67 -57.5,-210.76 -106,-421.3 -134,-624.76 -7.8,-1.37 -15.8,-2.06 -23.9,-2.06" /></g><g
         transform="scale(1.13585)"
         id="g388"><path
           id="path390"
           style="fill:#390075;fill-opacity:1;fill-rule:nonzero;stroke:none"
           d="m 16217.9,6094.45 c -79.2,5.72 -155.3,11.89 -227.4,18.14 -22.7,22.63 -39.5,51.77 -47.2,85.4 -2.3,18.4 -1.4,25 -1.5,35.83 0,10.12 0.8,18.75 1.3,28.17 0.9,10.83 1.8,21.57 3,32.05 0.8,6.95 1.6,13.73 2.6,20.42 4.5,34.07 11.1,66.56 18.4,98.52 14.9,63.65 34.6,124.05 56.7,182.33 19.3,49.92 40.9,98.07 64.2,144.74 40.3,-7.31 83,-13.83 128.3,-19.63 -1.6,-53 -0.7,-105.39 3.1,-156.71 4.4,-54.85 11.5,-108.56 22.8,-159.45 5.7,-25.35 11.9,-50.27 19.8,-73.33 3.6,-11.8 7.9,-22.72 12.1,-33.19 2.2,-4.85 4.3,-10.57 6.6,-14.44 1.6,-2.65 3.8,-7.93 5,-7.93 0.4,0 0.7,0.45 0.8,1.41 0.7,-3.34 1.4,-6.69 2,-10.03 11.5,-67.7 -17.6,-134 -70.6,-172.3" /></g><g
         transform="scale(1.21829)"
         id="g392"><path
           id="path394"
           style="fill:#390075;fill-opacity:1;fill-rule:nonzero;stroke:none"
           d="m 16012.2,5647.92 c -8.2,0 -16.4,0 -24.6,0 -7.5,13.38 -13.1,27.99 -16.8,43.59 -2.1,17.24 -1.3,23.31 -1.3,33.41 0,9.52 0.8,17.56 1.2,26.26 1.4,16.83 2.9,33.25 5.2,49 0.6,4.11 1.2,8.3 1.8,12.4 4.1,27.25 9.5,53.52 15.4,79.38 13.9,59.34 32.3,115.65 52.9,169.99 20.9,54.33 44.9,106.38 70.7,156.53 12.6,24.38 25.7,48.18 39.3,71.58 26.4,6.48 52.7,13.54 78.7,21.09 -4.4,-40.96 -7.7,-81.59 -9,-122.14 -1.9,-52.94 -1.2,-105.31 2.6,-156.45 4.1,-51.22 10.7,-101.29 21.2,-148.73 5.3,-23.48 11.1,-46.63 18.3,-68.05 0.1,-0.08 0.1,-0.24 0.2,-0.33 3.4,-10.92 7.4,-21.18 11.3,-30.94 2.1,-4.43 4,-9.77 6.2,-13.46 1.4,-2.46 3.6,-7.31 4.7,-7.31 0.3,0 0.5,0.33 0.7,1.24 9.1,-39.98 2.9,-79.87 -15,-113.45 -88.1,-2.46 -176.3,-3.61 -263.7,-3.61" /></g><g
         transform="scale(1.8466)"
         id="g396"><path
           id="path398"
           style="fill:#776689;fill-opacity:1;fill-rule:nonzero;stroke:none"
           d="m 16161.1,5379.31 c -113.7,0 -232.2,13.75 -347.1,49.66 52.4,171.99 76,335.42 83.4,479.53 1,20.52 1.8,40.88 2.2,61.19 58,20.15 114.1,48.03 168.1,83.23 -16.9,-227.17 3.3,-551.5 232.3,-667.11 -45.1,-4.12 -91.6,-6.5 -138.9,-6.5" /></g><g
         transform="scale(1.98138)"
         id="g400"><path
           id="path402"
           style="fill:#c3b2d5;fill-opacity:1;fill-rule:nonzero;stroke:none"
           d="m 15181.1,4745.02 c -171.3,0 -348.1,28.98 -529.8,86.82 35.6,77.01 64.2,153.27 86.9,227.82 107.2,-33.47 217.5,-46.29 323.5,-46.29 44.1,0 87.4,2.22 129.5,6.06 50.3,-25.44 111.6,-40.07 185.8,-40.07 5.4,0 10.8,0.1 16.3,0.25 349,9.89 686.5,147.07 906.7,259.47 -81.6,-83.13 -192,-179.73 -329.6,-264.87 -246.9,-152.72 -510.8,-229.19 -789.3,-229.19" /></g><g
         transform="scale(2.01227)"
         id="g404"><path
           id="path406"
           style="fill:#390075;fill-opacity:1;fill-rule:nonzero;stroke:none"
           d="m 14946.2,4573.69 c -172.6,0 -360.8,27.73 -564.5,94.12 16,30.02 30.9,59.99 44.7,89.85 178.9,-56.95 353,-85.47 521.6,-85.47 274.3,0 534.2,75.29 777.2,225.66 135.5,83.84 244.2,178.96 324.6,260.8 154.3,78.72 250.2,145.06 250.2,145.06 0,0 -469.3,-729.97 -1353.8,-730.02 m -355.7,904.5 c 0.9,35.83 0.7,71.26 -0.4,106.2 60.3,25.1 117.1,60.68 170.3,105.45 -5.7,-36.57 -11.7,-83.14 -15.6,-135.27 -49.5,-32.3 -101,-57.89 -154.3,-76.38" /></g><g
         transform="scale(1.80134)"
         id="g408"><path
           id="path410"
           style="fill:#390075;fill-opacity:1;fill-rule:nonzero;stroke:none"
           d="m 16065.7,5214.4 c -26.3,8.61 -53,17.77 -79.8,27.54 -8.3,3.05 -16.8,6.05 -25.3,9.33 152.9,279.95 216.5,569.35 226.5,840.59 -1.6,-7.21 -3.3,-14.43 -4.7,-22.2 -15.6,-81.28 -44.3,-162.27 -84.1,-242.1 l 89.9,376.16 c 37.9,8.11 74.7,19.66 110.4,34.59 1.2,-39.03 1.4,-78.61 0.5,-118.63 -0.5,-20.82 -1.3,-41.7 -2.3,-62.74 -7.6,-147.72 -31.7,-315.26 -85.5,-491.57 -25,-82 -56.4,-165.88 -95.6,-250.6 -15.4,-33.36 -32,-66.84 -50,-100.37" /></g><g
         transform="scale(1.78887)"
         id="g412"><path
           id="path414"
           style="fill:#390075;fill-opacity:1;fill-rule:nonzero;stroke:none"
           d="m 16071.9,5287.88 c -0.1,0.05 -0.2,0.05 -0.3,0.11 l 29.4,122.42 62.3,260.5 47.2,197.28 c 40.1,80.39 69,161.95 84.7,243.79 1.4,7.82 3.1,15.09 4.8,22.36 -10.1,-273.14 -74.1,-564.55 -228.1,-846.46" /></g><g
         transform="scale(1.83933)"
         id="g416"><path
           id="path418"
           style="fill:#ffffff;fill-opacity:1;fill-rule:nonzero;stroke:none"
           d="m 16300,5004.55 c -76.9,-15.49 -178.6,-6.79 -312.1,35.61 108.8,-21.47 212.9,-32.89 312.1,-35.61" /></g></g></g></svg>